<svg height="477.60001pt" viewBox="0 0 477.60001 477.60001" width="477.60001pt" xmlns="http://www.w3.org/2000/svg"><path d="m477.601562 238.800781c0 131.886719-106.914062 238.800781-238.800781 238.800781s-238.800781-106.914062-238.800781-238.800781 106.914062-238.800781 238.800781-238.800781 238.800781 106.914062 238.800781 238.800781zm0 0" fill="#382b73"/><path d="m445.398438 238.800781c0 114.101563-92.496094 206.597657-206.597657 206.597657-114.101562 0-206.597656-92.496094-206.597656-206.597657 0-114.101562 92.496094-206.597656 206.597656-206.597656 114.101563 0 206.597657 92.496094 206.597657 206.597656zm0 0" fill="#473080"/><path d="m370.277344 279.023438c-.59375-1.992188-2.542969-3.261719-4.613282-2.984376l-48.960937 6.472657-16.675781-55.394531 11.308594-3.949219c2.191406 2.871093 6.09375 4.144531 9.6875 2.742187l18.890624-7.371094c3.660157-1.425781 5.679688-5.082031 5.296876-8.699218-.066407-.605469-.195313-1.207032-.398438-1.796875-.199219-.589844-.46875-1.167969-.816406-1.726563l-6.519532-10.53125-6.519531-10.535156c-.324219-.523438-.695312-1-1.105469-1.425781-.414062-.425781-.863281-.796875-1.339843-1.121094-.847657-.570313-1.796875-.945313-2.773438-1.171875-2.050781-.480469-4.253906-.175781-6.175781.972656-7.195312-9.269531-15.726562-17.453125-25.320312-24.234375-6.910157-4.882812-14.367188-9.046875-22.261719-12.382812-2.628907-1.109375-5.308594-2.128907-8.03125-3.050781-13.621094-4.613282-28.347657-6.816407-43.683594-6.109376-1.867187.085938-3.722656.21875-5.566406.390626-.625.058593-1.238281.148437-1.859375.21875-1.21875.132812-2.4375.261718-3.640625.433593-.738281.101563-1.46875.242188-2.203125.359375-1.070313.171875-2.148438.335938-3.210938.539063-.792968.148437-1.574218.328125-2.359375.496093-.992187.210938-1.988281.410157-2.96875.648438-.820312.195312-1.621093.417969-2.433593.628906-.9375.246094-1.878907.484375-2.808594.753906-.828125.238282-1.644532.503907-2.46875.757813-.273438.085937-.546875.167969-.820313.253906l.019531-.03125c-.15625.054688-.304687.113281-.460937.167969-.46875.148438-.9375.300781-1.40625.460938-.835937.285156-1.660156.589843-2.488281.890624-.851563.3125-1.703125.617188-2.542969.945313s-1.671875.679687-2.503906 1.023437c-.738281.3125-1.484375.613282-2.214844.9375-27.882813 11.625-51.5 29.351563-70.410156 53.804688-1.265625 1.628906-2.511719 3.285156-3.730469 4.972656-2.058594 2.746094-1.941406 6.523438.289062 9.140625l7.289063 8.539063c-.425781 1.503906-.820313 3.019531-1.1875 4.546875-.082031.339843-.144531.683593-.222656 1.023437-.304688 1.320313-.589844 2.644532-.847657 3.980469-.113281.574219-.210937 1.152344-.316406 1.730469-.203125 1.132812-.390625 2.269531-.558594 3.410156-.089843.613281-.175781 1.222656-.257812 1.839844-.15625 1.183594-.289062 2.375-.410156 3.570312-.054688.542969-.117188 1.085938-.167969 1.632813-.148437 1.730469-.269531 3.46875-.34375 5.21875-.296875 7 .355469 13.984375 1.648437 20.8125h-.003906l.023438.105469c.753906 3.949218 1.722656 7.839843 2.863281 11.648437l7.054687 28.699219c-.035156.027344-.074218.054687-.113281.085937-.0625.046875-.128906.09375-.191406.144531-.417969.332032-.804687.691407-1.167969 1.078126-.050781.054687-.101562.117187-.152344.171874-.347656.386719-.671874.792969-.957031 1.222657-.015625.023437-.035156.046875-.050781.066406-.289062.441406-.539062.910156-.765625 1.390625-.042969.089844-.085937.183594-.125.273438-.207031.480468-.390625.972656-.53125 1.480468-.015625.0625-.023437.121094-.039063.179688-.125.476562-.210937.960937-.265624 1.453125-.007813.089843-.027344.179687-.035157.269531-.042969.523438-.050781 1.050781-.019531 1.585938.007812.113281.019531.222656.027344.335937.050781.550781.128906 1.105469.261718 1.664063l3.304688 13.4375c.976562 3.976562 3.171875 7.304687 6.074219 9.710937.964843.800781 2.011719 1.5 3.117187 2.089844 4.421875 2.351562 9.800782 2.898437 14.925782 1.011719l9.773437-2.171876 15.355469-3.410156c2.269531-.507812 4.554687-.945312 6.839844-1.347656 1.144531-.203125 2.289062-.410156 3.433593-.589844.632813-.097656 1.230469-.261718 1.8125-.460937.082031-.027344.164063-.050781.246094-.078125.546875-.203125 1.0625-.449219 1.554687-.730469.09375-.050781.179688-.105469.269532-.160156.484375-.292969.9375-.621094 1.359375-.984375.066406-.054688.125-.113282.1875-.171875.644531-.582031 1.214843-1.234375 1.695312-1.953125 1.285157-.136719 2.574219-.296875 3.859375-.398438 2.238282-.179687 4.476563-.308594 6.714844-.382812 8.960938-.308594 17.949219.210937 26.855469 1.558594l9.882812 1.5c1.011719.355468 2.023438.632812 3.03125.875.203125.050781.410157.101562.613281.148437.976563.210937 1.949219.375 2.914063.484375.171875.019531.34375.03125.519531.046875.902344.085937 1.800782.132813 2.691406.132813.121094 0 .246094.007812.367188.007812.957031-.015625 1.902344-.082031 2.835938-.1875.203124-.023438.398437-.046875.597656-.074219.933594-.125 1.859375-.285156 2.769531-.5.085937-.019531.167969-.046875.253906-.066406.863281-.214844 1.707031-.46875 2.539063-.757813.152344-.054687.304687-.105468.457031-.15625.863281-.316406 1.710937-.675781 2.535156-1.070312.152344-.070312.304688-.148438.453125-.226562.835938-.414063 1.652344-.859376 2.445313-1.351563.007812-.003906.015625-.007813.023437-.011719.097656-.0625.199219-.132812.296875-.195312l91.316407 28.566406c.417968.128906.84375.195312 1.265624.195312 1.195313 0 2.359376-.511718 3.179688-1.4375 10.742188-12.195312 17.5625-25.695312 20.261719-40.125 2.554687-13.734374 1.460937-28.679687-3.265625-44.421874zm-62.097656 4.613281h.007812l-39.015625 5.15625-9.835937-27.980469 18.171874-25.828125 14.503907-5.066406-.003907.003906zm46.550781 16.371093c-.125-4.464843-.597657-9.066406-1.335938-13.789062l9.738281-1.289062c1.304688 4.898437 2.203126 9.691406 2.726563 14.367187zm-9.914063-11.996093c.164063 1.078125.304688 2.140625.433594 3.203125.085938.699218.167969 1.398437.238281 2.089844.046875.441406.074219.878906.113281 1.320312l-1.445312 6.058594-14.808594.945312c-3.972656.285156-7.542968-2.191406-8.695312-5.988281l-1.472656-4.90625 25.53125-3.371094c.03125.210938.074218.429688.105468.648438zm-80.03125 41.628906c.410156-.519531.804688-1.050781 1.175782-1.601563.085937-.125.167968-.246093.25-.371093 1.066406-1.601563 1.976562-3.308594 2.710937-5.105469.046875-.113281.097656-.226562.144531-.34375.347656-.890625.65625-1.796875.917969-2.726562.035156-.117188.0625-.238282.09375-.359376.117187-.441406.234375-.886718.332031-1.339843.003906-.007813.003906-.019531.007813-.027344.109375-.507813.207031-1.019531.289062-1.53125 0-.003906 0-.003906 0-.003906.027344-.179688.050781-.359375.074219-.539063.023438-.160156.035156-.320312.058594-.480468.066406-.554688.117187-1.109376.152344-1.671876.015624-.222656.023437-.445312.03125-.667968.019531-.507813.027343-1.015625.019531-1.53125-.003907-.253906-.007813-.507813-.019531-.761719-.019532-.496094-.058594-.996094-.109376-1.496094-.023437-.265625-.042968-.527343-.074218-.792969-.0625-.523437-.148438-1.054687-.242188-1.582031-.042968-.238281-.074218-.472656-.121094-.707031-.15625-.761719-.332031-1.527344-.546874-2.296875l-1.757813-6.226563 42.484375-5.617187 1.882812 6.238281c2.1875 7.21875 8.753907 12.035156 16.175782 12.035156.234375 0 .464844-.019531.695312-.03125.167969-.003906.332032-.003906.5-.015624l10.894532-.695313 1.300781-.082031-8.375 35.15625c-.054688.078125-.109375.160156-.167969.238281-.347656.488281-.710938.972656-1.082031 1.457031-.367188.488282-.746094.976563-1.132813 1.464844-.429687.535156-.875 1.074219-1.328125 1.613281-.179687.210938-.367187.425781-.546875.636719l-61.140625-19.128906zm83.898438 26.246094-10.183594-3.183594c6.113281-7.714844 9.796875-15.066406 12.808594-25.308594 1.792968-6.097656 2.84375-12.378906 3.246094-18.878906l11.824218-.753906c.011719.847656-.007812 1.6875-.023437 2.527343-.011719.636719-.027344 1.269532-.058594 1.902344-.027344.601563-.0625 1.203125-.105469 1.804688-.0625.859375-.140625 1.710937-.234375 2.554687-.050781.476563-.09375.957031-.15625 1.429688-.140625 1.097656-.3125 2.183593-.503906 3.261719-.035156.210937-.0625.425781-.101563.636718-.753906 4.035156-1.90625 7.988282-3.386718 11.863282-2.960938 7.75-7.328125 15.164062-13.125 22.144531zm0 0" fill="#382b73"/><path d="m189.945312 128.175781c-34.933593 11.996094-63.769531 32.707031-85.757812 63.207031-2.0625 2.746094-1.941406 6.523438.289062 9.136719l25.453126 29.835938zm0 0" fill="#ef5a9d"/><path d="m106.605469 202.960938c-2.230469-2.613282-2.351563-6.390626-.292969-9.136719 21.03125-29.167969 48.335938-49.363281 81.230469-61.5625l2.402343-4.085938c-34.933593 11.992188-63.769531 32.703125-85.757812 63.203125-2.0625 2.746094-1.941406 6.523438.289062 9.140625l25.453126 29.832031.019531-.03125zm0 0" fill="#f06ea9"/><path d="m112.683594 189.695312c-1.933594-2.265624-2.277344-5.40625-.992188-7.988281-2.578125 3.113281-5.089844 6.324219-7.507812 9.675781-2.058594 2.746094-1.941406 6.523438.289062 9.136719l25.457032 29.835938 7.109374-12.109375zm0 0" fill="#e43d91"/><path d="m332.304688 188.847656c-20.09375-40.816406-62.976563-68.390625-112.042969-66.121094-60.917969 2.816407-110.246094 52.363282-112.816407 113.289063-.296874 7 .355469 13.980469 1.652344 20.8125h-.007812l.027344.105469c.75 3.949218 1.722656 7.839844 2.863281 11.652344l12.382812 50.378906c2.347657 9.5625 12.492188 14.953125 21.734375 11.550781l22.644532-5.035156c17.578124-3.90625 35.730468-4.523438 53.539062-1.828125l9.878906 1.496094c22.300782 7.839843 44.183594-12.695313 37.769532-35.445313l-9.886719-35.0625c-4.144531-14.6875 4.007812-30.035156 18.496093-34.835937l47.402344-15.6875c6.320313-2.09375 9.304688-9.296876 6.363282-15.269532zm0 0" fill="#ef5a9d"/><path d="m260.042969 254.640625c-.5625-1.988281-.878907-3.984375-1.003907-5.96875-2.164062 5.582031-2.625 11.871094-.878906 18.050781l9.882813 35.058594c.601562 2.125.953125 4.234375 1.082031 6.300781 2.148438-5.539062 2.640625-11.867187.804688-18.382812zm0 0" fill="#f06ea9"/><path d="m260.242188 306.140625-17.207032 5.363281c-1.519531.472656-3.132812-.375-3.605468-1.894531l-4.019532-12.886719c-.472656-1.515625.375-3.128906 1.894532-3.605468l17.207031-5.359376c5.078125-1.582031 10.472656 1.25 12.054687 6.328126 1.585938 5.074218-1.246094 10.472656-6.324218 12.054687zm0 0" fill="#e43d91"/><path d="m218.378906 134.808594c49.066406-2.269532 91.949219 25.304687 112.046875 66.121094.035157.074218.058594.148437.09375.226562 2.964844-3.210938 3.875-8.066406 1.785157-12.308594-20.09375-40.816406-62.976563-68.390625-112.042969-66.121094-58.566407 2.707032-106.394531 48.613282-112.289063 106.292969 10.863282-51.890625 55.996094-91.695312 110.40625-94.210937zm0 0" fill="#f06ea9"/><g fill="#e43d91"><path d="m243.96875 306.082031-9.882812-1.496093c-17.804688-2.699219-35.957032-2.078126-53.539063 1.828124l-22.644531 5.03125c-9.238282 3.40625-19.382813-1.984374-21.734375-11.546874l-12.382813-50.378907c-1.140625-3.8125-2.109375-7.707031-2.863281-11.652343l-.027344-.105469h.007813c-1.292969-6.832031-1.945313-13.816407-1.648438-20.8125.710938-16.871094 5.019532-32.855469 12.148438-47.230469-14.136719 18.632812-22.914063 41.523438-23.957032 66.296875-.296874 6.996094.355469 13.980469 1.652344 20.8125h-.007812l.027344.105469c.75 3.945312 1.722656 7.835937 2.863281 11.652344l12.382812 50.378906c2.347657 9.5625 12.492188 14.949218 21.734375 11.546875l22.644532-5.03125c17.578124-3.90625 35.730468-4.527344 53.539062-1.832031l9.878906 1.5c18.070313 6.351562 35.859375-5.925782 38.546875-22.917969-7.265625 5.269531-16.964843 7.289062-26.738281 3.851562zm0 0"/><path d="m331.429688 187.140625-41.082032 13.597656c-10.496094 3.472657-17.636718 12.492188-19.214844 22.78125 2.222657-1.554687 4.707032-2.820312 7.410157-3.714843l47.398437-15.691407c6.324219-2.089843 9.308594-9.292969 6.367188-15.265625-.285156-.574218-.589844-1.136718-.878906-1.707031zm0 0"/><path d="m231.09375 221.710938-19.558594-11.78125c-1.726562-1.042969-2.28125-3.285157-1.242187-5.007813l8.824219-14.644531c1.039062-1.726563 3.28125-2.285156 5.007812-1.242188l19.554688 11.78125c5.769531 3.476563 7.628906 10.972656 4.152343 16.742188-3.472656 5.769531-10.96875 7.628906-16.738281 4.152344zm0 0"/></g><path d="m158.09375 289.054688-34.511719 6.25c-6.207031 1.125-10.183593 7.25-8.679687 13.378906l3.304687 13.4375c2.605469 10.609375 13.863281 16.59375 24.117188 12.816406l25.128906-5.585938c3.40625-.757812 6.832031-1.402343 10.273437-1.9375 6.261719-.96875 10.257813-7.195312 8.453126-13.269531-.425782-1.429687-1.152344-2.75-2.128907-3.871093l-15.136719-17.410157c-2.683593-3.089843-6.796874-4.535156-10.820312-3.808593zm0 0" fill="#fede3a"/><path d="m183.429688 317.414062c-3.441407.535157-6.871094 1.179688-10.277344 1.9375l-25.125 5.582032c-10.253906 3.777344-21.511719-2.207032-24.121094-12.8125l-3.300781-13.4375c-.179688-.746094-.28125-1.488282-.308594-2.222656-4.238281 2.308593-6.609375 7.261718-5.390625 12.222656l3.304688 13.4375c2.605468 10.609375 13.863281 16.589844 24.117187 12.8125l25.128906-5.582032c3.40625-.757812 6.832031-1.402343 10.273438-1.9375 5.488281-.851562 9.234375-5.734374 8.863281-11.019531-.972656.488281-2.03125.84375-3.164062 1.019531zm0 0" fill="#f7cb15"/><path d="m213.765625 288.871094c0 3.335937-2.703125 6.039062-6.042969 6.039062-3.335937 0-6.039062-2.703125-6.039062-6.039062 0-3.339844 2.703125-6.042969 6.039062-6.042969 3.339844 0 6.042969 2.707031 6.042969 6.042969zm0 0" fill="#fede3a"/><path d="m207.726562 289.742188c-2.410156 0-4.46875-1.417969-5.441406-3.457032-.375.785156-.597656 1.65625-.597656 2.585938 0 3.335937 2.703125 6.039062 6.039062 6.039062 3.335938 0 6.042969-2.703125 6.042969-6.039062 0-.929688-.226562-1.800782-.597656-2.585938-.976563 2.039063-3.039063 3.457032-5.445313 3.457032zm0 0" fill="#f7cb15"/><path d="m350.085938 351.003906c-.425782 0-.851563-.0625-1.265626-.195312l-99.367187-31.082032c-1.261719-.394531-2.265625-1.355468-2.71875-2.597656l-32.136719-88.367187c-1.273437-3.492188-1.910156-7.148438-1.90625-10.863281.011719-5.71875 1.578125-11.335938 4.527344-16.238282l4.972656-8.257812c3.632813-6.039063 10.734375-9.230469 17.660156-7.917969l15.730469 2.96875c1.203125.226563 2.464844.183594 3.652344-.113281l57.578125-14.378906c1.917969-.480469 3.914062.433593 4.808594 2.195312l10.488281 20.667969c.550781 1.089843.605469 2.371093.152344 3.5-.457031 1.136719-1.382813 2.019531-2.535157 2.417969l-52.214843 18.246093-18.171875 25.828125 9.835937 27.980469 96.488281-12.753906c2.070313-.277344 4.019532.992187 4.617188 2.984375 4.726562 15.742187 5.820312 30.6875 3.25 44.417968-2.703125 14.433594-9.519531 27.933594-20.261719 40.125-.824219.925782-1.988281 1.433594-3.183593 1.433594zm-96.101563-38.742187 94.699219 29.625c8.695312-10.472657 14.246094-21.902344 16.511718-34.007813 2.132813-11.390625 1.441407-23.808594-2.058593-36.957031l-96.265625 12.722656c-1.988282.269531-3.890625-.902343-4.554688-2.792969l-11.703125-33.289062c-.453125-1.289062-.253906-2.722656.53125-3.84375l20.214844-28.726562c.511719-.722657 1.234375-1.269532 2.070313-1.558594l48.925781-17.097656-6.769531-13.335938-54.289063 13.554688c-2.363281.59375-4.886719.675781-7.289063.222656l-15.726562-2.96875c-3.464844-.648438-7.015625.941406-8.832031 3.960937l-4.972657 8.261719c-2.160156 3.585938-3.304687 7.695312-3.3125 11.882812-.007812 2.71875.464844 5.394532 1.390626 7.949219zm0 0" fill="#fff"/><path d="m370.480469 289.203125v-.015625c-.472657-7.460938-1.933594-15.121094-4.265625-22.945312l-17.730469 2.332031-4.449219.605469-30.785156 4.066406-3.828125.511718-43.101563 5.6875-8.917968-25.351562-1.367188-3.902344-1.421875-4.03125 20.207031-28.726562 53.515626-18.695313-10.488282-20.664062-57.578125 14.375c-1.789062.453125-3.648437.507812-5.472656.164062l-15.722656-2.976562c-5.230469-.964844-10.503907 1.386719-13.257813 5.949219l-4.960937 8.261718c-2.554688 4.25-3.921875 9.097656-3.921875 14.058594 0 3.210938.546875 6.386719 1.640625 9.410156l11.601562 31.898438 1.421875 3.886718 19.113282 52.582032 76.347656 23.875 4.414062 1.386718 18.621094 5.816407c10.507812-11.925781 16.761719-24.675781 19.277344-38.101563.929687-4.957031 1.351562-9.992187 1.277344-15.152344v-.019531c-.003907-1.421875-.058594-2.84375-.167969-4.285156zm-5.289063 18.675781c-2.261718 12.109375-7.804687 23.527344-16.503906 34.015625l-15.722656-4.925781-3.484375-1.074219-75.507813-23.636719-18.382812-50.554687-1.402344-3.886719-11.621094-31.953125c-.929687-2.554687-1.402344-5.234375-1.402344-7.953125.019532-4.175781 1.148438-8.296875 3.320313-11.871094l4.960937-8.261718c1.824219-3.03125 5.378907-4.617188 8.84375-3.960938l15.722657 2.957032c2.410156.453124 4.925781.382812 7.296875-.21875l54.277344-13.550782 6.765624 13.332032-48.914062 17.109374c-.839844.289063-1.570312.835938-2.082031 1.546876l-20.207031 28.726562c-.785157 1.132812-.984376 2.554688-.527344 3.847656l1.402344 4.03125 1.386718 3.90625 8.898438 25.351563c.675781 1.898437 2.574218 3.0625 4.5625 2.789062l43.789062-5.78125 3.828125-.511719 30.242188-3.992187 4.359375-.566406 14.042968-1.859375c1.695313 6.363281 2.71875 12.546875 3.101563 18.527344v.019531c.089844 1.441406.144531 2.863281.144531 4.285156.070313 4.847656-.328125 9.554687-1.1875 14.113281zm0 0" fill="#d1d3d4"/><path d="m331.363281 344.773438c-1.039062 0-2.082031-.371094-2.917969-1.121094-1.804687-1.613282-1.957031-4.378906-.339843-6.183594 7.59375-8.476562 11.605469-15.671875 14.796875-26.542969 3.703125-12.597656 4.089844-26.082031 1.199218-41.238281-.457031-2.375 1.101563-4.667969 3.476563-5.121094 2.375-.460937 4.671875 1.105469 5.125 3.480469 3.164063 16.550781 2.707031 31.382813-1.394531 45.347656-3.601563 12.257813-8.121094 20.367188-16.679688 29.917969-.863281.96875-2.0625 1.460938-3.265625 1.460938zm0 0" fill="#fff"/><path d="m331.367188 344.769531c-1.042969 0-2.085938-.367187-2.921876-1.117187-1.800781-1.613282-1.957031-4.382813-.339843-6.183594 7.59375-8.476562 11.605469-15.671875 14.800781-26.542969 3.699219-12.597656 4.089844-26.085937 1.195312-41.234375-.453124-2.378906 1.105469-4.671875 3.480469-5.125 2.386719-.460937 4.671875 1.105469 5.125 3.480469 3.160157 16.550781 2.703125 31.382813-1.394531 45.347656-3.601562 12.257813-8.121094 20.371094-16.679688 29.917969-.871093.96875-2.066406 1.457031-3.265624 1.457031zm0 0" fill="#fff"/><path d="m228.527344 255.207031 26.804687-9.351562 2.792969 8.003906-26.804688 9.351563zm0 0" fill="#fff"/><path d="m257.402344 254.09375-3.992188 1.402344-17.820312 6.203125-3.992188 1.40625-1.421875-3.886719 4.011719-1.402344 17.835938-6.21875 4.011718-1.40625zm0 0" fill="#d1d3d4"/><path d="m347.355469 310.925781c-3.136719 10.652344-7.039063 17.78125-14.390625 26.042969-.125.164062-.273438.328125-.417969.492188-.875.984374-1.242187 2.261718-1.078125 3.484374l-4.414062-1.386718c.148437-.746094.492187-1.476563 1.042968-2.097656.472656-.527344.929688-1.058594 1.382813-1.566407 6.714843-7.804687 10.433593-14.773437 13.425781-24.96875 3.390625-11.582031 3.992188-23.890625 1.824219-37.570312-.183594-1.207031-.402344-2.425781-.636719-3.667969-.039062-.179688-.054688-.34375-.054688-.507812l4.449219-.605469c-.035156.367187-.019531.730469.054688 1.113281.199219 1.039062.382812 2.082031.546875 3.101562 2.277344 13.898438 1.695312 26.410157-1.734375 38.136719zm0 0" fill="#d1d3d4"/><path d="m328.71875 296.125c-7.429688 0-13.988281-4.808594-16.179688-12.03125l-21.003906-69.769531 8.113282-2.441407 21.003906 69.753907c1.152344 3.796875 4.722656 6.273437 8.695312 5.988281l42.367188-2.699219.542968 8.457031-42.351562 2.703126c-.394531.027343-.792969.039062-1.1875.039062zm0 0" fill="#fff"/><path d="m292.011719 215.921875 16.167969 53.714844 3.832031-.507813-16.402344-54.46875zm0 0" fill="#d1d3d4"/><path d="m370.480469 289.203125-4.25.273437-11.5.730469c-.023438 1.445313-.085938 2.882813-.175781 4.308594l11.824218-.75 4.269532-.257813v-.019531c-.003907-1.421875-.058594-2.84375-.167969-4.285156zm0 0" fill="#d1d3d4"/><path d="m329.902344 296.078125 20.320312-1.28125c.109375-1.425781.195313-2.859375.226563-4.316406l-17.921875 1.132812c-.402344.015625-.785156.035157-1.1875.035157-11.453125-.035157-13.660156-3.390626-16.179688-12.039063l-1.914062-6.363281-3.832032.511718 3.121094 10.339844c2.1875 7.222656 8.753906 12.035156 16.175782 12.035156.40625 0 .808593-.015624 1.191406-.054687zm0 0" fill="#d1d3d4"/><path d="m231.09375 219.886719-19.558594-11.78125c-1.726562-1.042969-2.28125-3.285157-1.242187-5.007813l8.824219-14.644531c1.039062-1.726563 3.28125-2.28125 5.007812-1.242187l19.554688 11.785156c5.769531 3.476562 7.628906 10.972656 4.152343 16.742187-3.472656 5.769531-10.96875 7.625-16.738281 4.148438zm0 0" fill="#f06ea9"/><path d="m212.035156 208.414062 12.589844-20.890624 13.167969 7.933593-12.589844 20.894531zm0 0" fill="#e43d91"/><path d="m230.941406 191.316406-6.3125-3.800781-12.589844 20.890625 6.347657 3.824219zm0 0" fill="#ef5a9d"/><path d="m318.765625 168.980469-11.3125 8.566406c-2.734375 2.070313-3.933594 5.597656-3.023437 8.902344l5.460937 19.871093c1.316406 4.796876 6.496094 7.398438 11.128906 5.589844l18.890625-7.367187c4.882813-1.90625 6.839844-7.765625 4.082032-12.222657l-13.039063-21.066406c-2.597656-4.203125-8.246094-5.257812-12.1875-2.273437zm0 0" fill="#fede3a"/><path d="m343.992188 192.320312-13.039063-21.070312c-2.597656-4.199219-8.25-5.253906-12.1875-2.273438l-4.738281 3.589844c2.667968.113282 5.253906 1.460938 6.78125 3.925782l13.039062 21.070312c1.921875 3.101562 1.546875 6.882812-.496094 9.539062l6.558594-2.5625c4.882813-1.902343 6.839844-7.761718 4.082032-12.21875zm0 0" fill="#fff335"/><path d="m343.992188 192.320312-3.453126-5.585937c.726563 3.828125-1.300781 7.855469-5.183593 9.371094l-18.894531 7.371093c-2.621094 1.023438-5.398438.59375-7.574219-.804687l1.003906 3.648437c1.320313 4.796876 6.496094 7.398438 11.132813 5.589844l18.890624-7.371094c4.878907-1.902343 6.835938-7.761718 4.078126-12.21875zm0 0" fill="#f7cb15"/><path d="m257.285156 157.667969 8.429688 15.976562c1.25 2.371094-.535156 5.203125-3.210938 5.097657l-18.859375-.726563c-2.734375-.109375-4.28125-3.183594-2.738281-5.445313l10.429688-15.246093c1.480468-2.160157 4.726562-1.972657 5.949218.34375zm0 0" fill="#e43d91"/><path d="m265.714844 173.644531-8.429688-15.976562c-1.222656-2.316407-4.46875-2.503907-5.949218-.34375l-.933594 1.367187c.574218.308594 1.082031.769532 1.421875 1.417969l8.429687 15.976563c.449219.851562.492188 1.765624.257813 2.578124l1.992187.078126c2.675782.105468 4.460938-2.726563 3.210938-5.097657zm0 0" fill="#f06ea9"/><path d="m245.390625 212.460938c0 3.335937-2.703125 6.042968-6.042969 6.042968-3.335937 0-6.042968-2.703125-6.042968-6.042968 0-3.335938 2.707031-6.039063 6.042968-6.039063 3.335938 0 6.042969 2.703125 6.042969 6.039063zm0 0" fill="#e43d91"/><path d="m245.390625 210.636719c0 3.335937-2.703125 6.042969-6.042969 6.042969-3.335937 0-6.042968-2.707032-6.042968-6.042969 0-3.335938 2.707031-6.039063 6.042968-6.039063 3.335938 0 6.042969 2.703125 6.042969 6.039063zm0 0" fill="#fede3a"/><path d="m239.347656 211.796875c-2.464844 0-4.578125-1.484375-5.519531-3.601563-.332031.75-.523437 1.570313-.523437 2.441407 0 3.335937 2.707031 6.042969 6.042968 6.042969 3.335938 0 6.042969-2.707032 6.042969-6.042969 0-.871094-.191406-1.695313-.523437-2.441407-.9375 2.117188-3.054688 3.601563-5.519532 3.601563zm0 0" fill="#f7cb15"/><path d="m259.164062 305.183594-17.207031 5.363281c-1.515625.472656-3.132812-.375-3.605469-1.894531l-4.015624-12.882813c-.472657-1.519531.375-3.132812 1.890624-3.609375l17.210938-5.359375c5.074219-1.582031 10.472656 1.25 12.054688 6.328125 1.582031 5.074219-1.25 10.472656-6.328126 12.054688zm0 0" fill="#f06ea9"/><path d="m236.664062 292.023438 11.585938-3.609376 5.726562 18.382813-11.585937 3.609375zm0 0" fill="#e43d91"/><path d="m242.226562 290.292969-5.554687 1.730469 5.730469 18.382812 5.582031-1.738281zm0 0" fill="#ef5a9d"/><path d="m262.28125 292.855469c1.96875 1.75 2.148438 4.761719.398438 6.734375-1.75 1.96875-4.765626 2.144531-6.734376.394531s-2.148437-4.761719-.398437-6.730469c1.75-1.972656 4.761719-2.148437 6.734375-.398437zm0 0" fill="#e43d91"/><path d="m261.203125 291.894531c1.96875 1.75 2.148437 4.765625.398437 6.734375s-4.761718 2.148438-6.734374.398438c-1.96875-1.75-2.148438-4.761719-.398438-6.734375 1.75-1.96875 4.765625-2.144531 6.734375-.398438zm0 0" fill="#fede3a"/><path d="m258.71875 296.070312c-1.289062 1.457032-3.273438 1.925782-5.015625 1.367188.265625.589844.652344 1.132812 1.164063 1.589844 1.972656 1.75 4.984374 1.570312 6.734374-.398438 1.75-1.972656 1.574219-4.984375-.398437-6.734375-.511719-.457031-1.097656-.773437-1.714844-.96875.757813 1.664063.527344 3.6875-.769531 5.144531zm0 0" fill="#f7cb15"/></svg>