<svg height="53" viewBox="0 0 58 53" width="58" xmlns="http://www.w3.org/2000/svg"><g id="Page-1" fill="none" fill-rule="evenodd"><g id="020---Stadium" fill-rule="nonzero"><path id="Shape" d="m52 42.5c.0032168-.0508271-.0035784-.1017913-.02-.15v-.01c3.77 1.01 6.02 2.28 6.02 3.66 0 3.31-12.98 7-29 7s-29-3.69-29-7c0-1.38 2.25-2.65 6.02-3.66v.01c-.01642157.0482087-.02321679.0991729-.02.15z" fill="#7f8c8d"/><path id="Shape" d="m.01 18.88.09.68c-.06781952-.1788371-.1017313-.3687431-.1-.56-.00164376-.0402597.00171525-.0805677.01-.12z" fill="#2980ba"/><path id="Shape" d="m58 19c.0017313.1912569-.0321805.3811629-.1.56l.09-.68c.0082848.0394323.0116438.0797403.01.12z" fill="#2980ba"/><path id="Shape" d="m57.9 19.56-.01.08v.01l-5.91 22.69v.01c.0164216.0482087.0232168.0991729.02.15 0 2.49-10.3 5.5-23 5.5s-23-3.01-23-5.5c-.00321679-.0508271.00357843-.1017913.02-.15v-.01l-5.91-22.69v-.01l-.01-.08z" fill="#3b97d3"/><path id="Shape" d="m10 42c-.45830655-.0004704-.85763169-.3124303-.969-.757l-3-12c-.12972141-.5339666.19570268-1.072566.72872921-1.2060974.53302654-.1335314 1.07393623.1880381 1.21127079.7200974l3 12c.0644087.2573975.0238814.5298406-.1126593.7573459-.1365406.2275052-.3578997.3914195-.6153407.4556541-.0794037.020245-.1610567.0303256-.243.03z" fill="#fff"/><path id="Shape" d="m35 43v4.77c-1.91.15-3.92.23-6 .23-1.72 0-3.39-.05-5-.16v-4.84c0-2.209139 1.790861-4 4-4h3c2.209139 0 4 1.790861 4 4z" fill="#35495e"/><path id="Shape" d="m39 43v4.36c-1.27.17-2.61.31-4 .41v-4.77c0-2.209139-1.790861-4-4-4h-3c-2.209139 0-4 1.790861-4 4v4.84c-1.39-.08-2.72-.2-4-.36v-4.48c.0060592-4.4157658 3.5842342-7.9939408 8-8h3c4.4157658.0060592 7.9939408 3.5842342 8 8z" fill="#84b5cb"/><path id="Shape" d="m18 2 7 3-7 3z" fill="#ff5364"/><path id="Shape" d="m51 5 7 3-7 3z" fill="#ff5364"/><path id="Shape" d="m7 5 7 3-7 3z" fill="#ff5364"/><path id="Shape" d="m40 2 7 3-7 3z" fill="#ff5364"/><path id="Shape" d="m29 1 7 3-7 3z" fill="#ff5364"/><path id="Shape" d="m18 18c-.5522847 0-1-.4477153-1-1v-15c0-.55228475.4477153-1 1-1s1 .44771525 1 1v15c0 .5522847-.4477153 1-1 1z" fill="#95a5a5"/><path id="Shape" d="m51 19c-.5522847 0-1-.4477153-1-1v-13c0-.55228475.4477153-1 1-1s1 .44771525 1 1v13c0 .5522847-.4477153 1-1 1z" fill="#95a5a5"/><path id="Shape" d="m7 18c-.55228475 0-1-.4477153-1-1v-12c0-.55228475.44771525-1 1-1s1 .44771525 1 1v12c0 .5522847-.44771525 1-1 1z" fill="#95a5a5"/><path id="Shape" d="m40 18c-.5522847 0-1-.4477153-1-1v-15c0-.55228475.4477153-1 1-1s1 .44771525 1 1v15c0 .5522847-.4477153 1-1 1z" fill="#95a5a5"/><path id="Shape" d="m29 18c-.5522847 0-1-.4477153-1-1v-16c0-.55228475.4477153-1 1-1s1 .44771525 1 1v16c0 .5522847-.4477153 1-1 1z" fill="#95a5a5"/><path id="Shape" d="m29 12c-14.21 0-28.7 3.07-28.99 6.88-.00828475.0394323-.01164376.0797403-.01.12-.0017313.1912569.03218048.3811629.1.56.37 1 1.7 1.94 3.73 2.78 2.15407166.8348488 4.38001905 1.4708337 6.65 1.9 6.1003414 1.194913 12.3037805 1.7844407 18.52 1.76 6.2162195.0244407 12.4196586-.565087 18.52-1.76 2.2699809-.4291663 4.4959283-1.0651512 6.65-1.9 2.03-.84 3.36-1.78 3.73-2.78l.09-.68c-.29-3.81-14.78-6.88-28.99-6.88z" fill="#2980ba"/><path id="Shape" d="m47.52 24.24c-6.1003414 1.194913-12.3037805 1.7844407-18.52 1.76-6.2162195.0244407-12.4196586-.565087-18.52-1.76 3.15-1.31 10.9-2.24 18.52-2.24s15.37.93 18.52 2.24z" fill="#285680"/><path id="Shape" d="m54.17 22.34c-2.1540717.8348488-4.3800191 1.4708337-6.65 1.9-1.1236207-.4316404-2.2854257-.7564101-3.47-.97-.9-.18-1.9-.35-2.98-.5-.8-.11-1.65-.21-2.53-.29-.75-.08-1.53-.15-2.32-.21-1.13-.09-2.28-.15-3.46-.2-.67-.02-1.34-.04-2.02-.05-.58-.01-1.16-.02-1.74-.02s-1.15.01-1.73.02c-.68.01-1.36.03-2.03.05-1.18.05-2.33.11-3.46.19-.79.07-1.57.14-2.32.22-.88.08-1.73.18-2.53.29-1.08.15-2.09.32-2.99.5-1.1813646.2133991-2.3398685.5381819-3.46.97-2.26998095-.4291663-4.49592834-1.0651512-6.65-1.9 1.35839918-1.1522196 2.94714407-2.0011412 4.66-2.49.78-.27 1.63-.53 2.54-.77 1.58-.41 3.33-.77 5.19-1.07.73-.12 1.48-.23 2.24-.33 1.9-.25 3.88-.43 5.91-.55.66-.04 1.34-.07 2.01-.08.87-.04 1.75-.05 2.62-.05s1.75.01 2.62.05c.68.01 1.35.04 2.02.08 2.02.12 4.01.3 5.91.55.76.1 1.51.21 2.24.33 1.86.3 3.6.66 5.18 1.07.91.24 1.76.5 2.54.77 1.7128559.4888588 3.3016008 1.3377804 4.66 2.49z" fill="#84b5cb"/><g fill="#3b97d3"><path id="Shape" d="m16.93 22.77c-1.08.15-2.09.32-2.99.5l-5.45-3.42c.78-.27 1.63-.53 2.54-.77z"/><path id="Shape" d="m49.51 19.85-5.46 3.42c-.9-.18-1.9-.35-2.98-.5l5.9-3.69c.91.24 1.76.5 2.54.77z"/><path id="Shape" d="m21.78 22.26c-.79.07-1.57.14-2.32.22l-3.24-4.47c.73-.12 1.48-.23 2.24-.33z"/><path id="Shape" d="m41.79 18.01-3.25 4.47c-.75-.08-1.53-.15-2.32-.21l3.33-4.59c.76.1 1.51.21 2.24.33z"/><path id="Shape" d="m27.27 22.02c-.68.01-1.36.03-2.03.05l-.87-4.94c.66-.04 1.34-.07 2.01-.08z"/><path id="Shape" d="m33.64 17.13-.88 4.94c-.67-.02-1.34-.04-2.02-.05l.88-4.97c.68.01 1.35.04 2.02.08z"/></g></g></g></svg>