<?xml version="1.0" encoding="UTF-8"?>
<svg xmlns="http://www.w3.org/2000/svg" viewBox="0 0 64 64" width="512" height="512"><g id="Layer_23" data-name="Layer 23"><path d="M63,9,61.817,7.817A2.79,2.79,0,0,0,59.845,7h0a2.794,2.794,0,0,0-1.548.468l-1.465.977A3.3,3.3,0,0,1,55,9h0a3.3,3.3,0,0,1-1.832-.555l-1.336-.89A3.3,3.3,0,0,0,50,7h0a3.3,3.3,0,0,0-1.832.555l-1.336.89A3.3,3.3,0,0,1,45,9h0a3.3,3.3,0,0,1-1.832-.555l-1.336-.89A3.3,3.3,0,0,0,40,7h0a3.3,3.3,0,0,0-1.832.555l-1.336.89A3.3,3.3,0,0,1,35,9h0a3.3,3.3,0,0,1-1.832-.555l-1.336-.89A3.3,3.3,0,0,0,30,7h0a3.3,3.3,0,0,0-1.832.555l-1.336.89A3.3,3.3,0,0,1,25,9h0a3.3,3.3,0,0,1-1.832-.555l-1.336-.89A3.3,3.3,0,0,0,20,7h0a3.3,3.3,0,0,0-1.832.555l-1.336.89A3.3,3.3,0,0,1,15,9h0a3.3,3.3,0,0,1-1.832-.555l-1.336-.89A3.3,3.3,0,0,0,10,7h0a3.3,3.3,0,0,0-1.832.555l-1.336.89A3.3,3.3,0,0,1,5,9H5a3.3,3.3,0,0,1-1.832-.555L1,7V57H63Z" style="fill:#4aaee3"/><path d="M59.845,10a2.794,2.794,0,0,0-1.548.468l-1.465.977a3.3,3.3,0,0,1-3.664,0l-1.336-.89a3.3,3.3,0,0,0-3.664,0l-1.336.89a3.3,3.3,0,0,1-3.664,0l-1.336-.89a3.3,3.3,0,0,0-3.664,0l-1.336.89a3.3,3.3,0,0,1-3.664,0l-1.336-.89a3.3,3.3,0,0,0-3.664,0l-1.336.89a3.3,3.3,0,0,1-3.664,0l-1.336-.89a3.3,3.3,0,0,0-3.664,0l-1.336.89a3.3,3.3,0,0,1-3.664,0l-1.336-.89a3.3,3.3,0,0,0-3.664,0l-1.336.89a3.3,3.3,0,0,1-3.664,0L1,10V57H63V12l-1.183-1.183A2.79,2.79,0,0,0,59.845,10Z" style="fill:#7fcdf2"/><path d="M21,50H19V46.733a3.207,3.207,0,0,0-.933-2.252,3.643,3.643,0,0,1,1.423-6.032,2.022,2.022,0,0,0,1.177-1.02l.438-.876,1.79.894-.438.876a4.013,4.013,0,0,1-2.333,2.023,1.644,1.644,0,0,0-.643,2.721A5.219,5.219,0,0,1,21,46.733Z" style="fill:#37815b"/><path d="M25,52H23V47.8a6.94,6.94,0,0,1,1.168-3.858A4.943,4.943,0,0,0,25,41.2V40h2v1.2a6.94,6.94,0,0,1-1.168,3.858A4.943,4.943,0,0,0,25,47.8Z" style="fill:#37815b"/><ellipse cx="51" cy="55" rx="3" ry="2" style="fill:#77787c"/><ellipse cx="55" cy="52" rx="3" ry="2" style="fill:#4b4b4c"/><path d="M13,26.236V22l.119.03a5.125,5.125,0,0,1,3.808,4.105" style="fill:#18435e"/><path d="M5,31,4,36H5.006A3,3,0,0,0,8,33H8l.054.054A10.059,10.059,0,0,0,15.166,36h0a10.059,10.059,0,0,0,7.854-3.775L24,31l-.98-1.225A10.059,10.059,0,0,0,15.166,26h0a10.059,10.059,0,0,0-7.112,2.946L8,29H8a3,3,0,0,0-2.994-3H4Z" style="fill:#307abe"/><path d="M15.166,26a10.059,10.059,0,0,0-7.112,2.946L8,29H8a3,3,0,0,0-2.994-3H4l1,5H24l-.98-1.225A10.059,10.059,0,0,0,15.166,26Z" style="fill:#419bd7"/><path d="M17.3,29.02A6.832,6.832,0,0,0,13,31h0a6.829,6.829,0,0,0,4.312,1.98" style="fill:#18435e"/><path d="M23.02,29.775a10.059,10.059,0,0,0-4.426-3.167l-.485.728a6.607,6.607,0,0,0,0,7.328l.485.728a10.059,10.059,0,0,0,4.426-3.167L24,31Z" style="fill:#225980"/><path d="M41,36.236V32l-.119.03a5.125,5.125,0,0,0-3.808,4.1" style="fill:#18435e"/><path d="M49,41l1,5H48.994A3,3,0,0,1,46,43h0l-.054.054A10.059,10.059,0,0,1,38.834,46h0a10.059,10.059,0,0,1-7.854-3.775L30,41l.98-1.225A10.059,10.059,0,0,1,38.834,36h0a10.059,10.059,0,0,1,7.112,2.946L46,39h0a3,3,0,0,1,2.994-3H50Z" style="fill:#307abe"/><path d="M38.834,36a10.059,10.059,0,0,1,7.112,2.946L46,39h0a3,3,0,0,1,2.994-3H50l-1,5H30l.98-1.225A10.059,10.059,0,0,1,38.834,36Z" style="fill:#419bd7"/><path d="M36.7,39.02A6.832,6.832,0,0,1,41,41h0a6.829,6.829,0,0,1-4.312,1.98" style="fill:#18435e"/><path d="M30.98,39.775a10.059,10.059,0,0,1,4.426-3.167l.485.728a6.607,6.607,0,0,1,0,7.328l-.485.728a10.059,10.059,0,0,1-4.426-3.167L30,41Z" style="fill:#225980"/><path d="M51,16.236V12l.119.03a5.125,5.125,0,0,1,3.808,4.105" style="fill:#18435e"/><path d="M43,21l-1,5h1.006A3,3,0,0,0,46,23h0l.054.054A10.059,10.059,0,0,0,53.166,26h0a10.059,10.059,0,0,0,7.854-3.775L62,21l-.98-1.225A10.059,10.059,0,0,0,53.166,16h0a10.059,10.059,0,0,0-7.112,2.946L46,19h0a3,3,0,0,0-2.994-3H42Z" style="fill:#307abe"/><path d="M53.166,16a10.059,10.059,0,0,0-7.112,2.946L46,19h0a3,3,0,0,0-2.994-3H42l1,5H62l-.98-1.225A10.059,10.059,0,0,0,53.166,16Z" style="fill:#419bd7"/><path d="M55.3,19.02A6.832,6.832,0,0,0,51,21h0a6.829,6.829,0,0,0,4.312,1.98" style="fill:#18435e"/><path d="M61.02,19.775a10.059,10.059,0,0,0-4.426-3.167l-.485.728a6.607,6.607,0,0,0,0,7.328l.485.728a10.059,10.059,0,0,0,4.426-3.167L62,21Z" style="fill:#225980"/><path d="M25.228,51.036A6.914,6.914,0,0,0,20,49c-3.314,0-6,1.791-6,4s2.686,4,6,4a8.333,8.333,0,0,0,3.078-.566" style="fill:#4b4b4c"/><ellipse cx="26" cy="54" rx="5" ry="3" style="fill:#77787c"/></g></svg>
