<svg id="Capa_1" enable-background="new 0 0 497 497" height="512" viewBox="0 0 497 497" width="512" xmlns="http://www.w3.org/2000/svg"><g><g><path d="m321.129 194.549c-4.142 0-7.5-3.358-7.5-7.5 0-6.913 3.475-10.778 5.552-13.088 1.595-1.774 1.707-1.974 1.707-3.059s-.112-1.286-1.707-3.06c-2.077-2.31-5.552-6.176-5.552-13.088s3.476-10.778 5.552-13.087c1.595-1.773 1.707-1.974 1.707-3.058 0-4.142 3.358-7.5 7.5-7.5s7.5 3.358 7.5 7.5c0 6.912-3.476 10.778-5.552 13.087-1.595 1.773-1.706 1.974-1.706 3.058 0 1.085.112 1.286 1.706 3.06 2.077 2.31 5.552 6.175 5.552 13.088s-3.475 10.778-5.552 13.088c-1.595 1.774-1.706 1.974-1.706 3.06-.001 4.141-3.359 7.499-7.501 7.499z" fill="#d1f19e"/></g><g><path d="m356.049 194.549c-4.142 0-7.5-3.358-7.5-7.5 0-6.913 3.476-10.778 5.552-13.088 1.595-1.774 1.707-1.975 1.707-3.059 0-1.085-.112-1.285-1.707-3.06-2.077-2.31-5.552-6.175-5.552-13.088s3.476-10.778 5.552-13.087c1.595-1.773 1.707-1.974 1.707-3.058 0-4.142 3.358-7.5 7.5-7.5s7.5 3.358 7.5 7.5c0 6.913-3.476 10.778-5.552 13.087-1.595 1.773-1.707 1.974-1.707 3.058 0 1.085.112 1.286 1.707 3.06 2.076 2.31 5.552 6.175 5.552 13.088s-3.476 10.778-5.552 13.088c-1.595 1.775-1.707 1.975-1.707 3.06 0 4.141-3.358 7.499-7.5 7.499z" fill="#bbec6c"/></g><g><path d="m390.969 194.549c-4.142 0-7.5-3.358-7.5-7.5 0-6.913 3.476-10.778 5.552-13.088 1.595-1.774 1.706-1.975 1.706-3.059 0-1.085-.112-1.285-1.706-3.06-2.077-2.31-5.552-6.175-5.552-13.088s3.476-10.778 5.552-13.087c1.595-1.773 1.706-1.974 1.706-3.058 0-4.142 3.358-7.5 7.5-7.5s7.5 3.358 7.5 7.5c0 6.913-3.476 10.778-5.552 13.087-1.595 1.773-1.707 1.974-1.707 3.058 0 1.085.112 1.286 1.707 3.06 2.076 2.31 5.552 6.175 5.552 13.088s-3.476 10.778-5.552 13.088c-1.595 1.775-1.707 1.975-1.707 3.06.001 4.141-3.357 7.499-7.499 7.499z" fill="#d1f19e"/></g><path d="m54.286 163.098h-49.286c-2.761 0-5-2.239-5-5v-74.286c0-2.761 2.239-5 5-5h49.286l10 28.095z" fill="#978ecb"/><path d="m54.286 163.098h20l10-84.286h-30z" fill="#8379c1"/><g><path d="m224.636 274.842h-45v-106.387c0-13.807-11.193-25-25-25h-59.97v-45h82.469c26.234 0 47.5 21.267 47.5 47.5v128.887z" fill="#bbec6c"/></g><path d="m187.136 98.455h-30c26.234 0 47.5 21.267 47.5 47.5v128.887h30v-128.887c0-26.234-21.267-47.5-47.5-47.5z" fill="#a2e62e"/><path d="m497 246.814c0-2.862-2.404-5.136-5.262-4.996-25.914 1.273-27.663 11.9-56.867 11.9-31.065 0-31.065-12.024-62.129-12.024-31.063 0-31.063 12.024-62.126 12.024-31.062 0-31.062-12.024-62.124-12.024-31.061 0-31.061 12.024-62.121 12.024-31.062 0-31.062-12.024-62.124-12.024s-31.062 12.024-62.125 12.024c-29.2 0-30.949-10.626-56.859-11.9-2.859-.14-5.263 2.134-5.263 4.996v42.41l20 125.617c0 5.523 4.477 10 10 10h437c5.523 0 10-4.477 10-10l20-125.617z" fill="#d1f19e"/><path d="m372.742 289.225c-31.063 0-31.063 12.024-62.126 12.024-31.062 0-31.062-12.024-62.124-12.024-31.061 0-31.061 12.024-62.121 12.024-31.062 0-31.062-12.024-62.124-12.024s-31.062 12.024-62.125 12.024c-31.061 0-31.061-12.024-62.122-12.024v47.53l20 86.087c0 5.523 4.477 10 10 10h447c5.523 0 10-4.477 10-10v-123.617c-14.823 0-11.377-4.399-20-4.399-8.138 3.137-15.888 6.423-32.129 6.423-31.065 0-31.065-12.024-62.129-12.024z" fill="#bbec6c"/><g><path d="m487 424.842c5.523 0 8-8.477 8-14l2-121.617v-42.413c0-2.84-2.365-5.134-5.202-4.996-11.539.56-18.292 2.972-24.798 5.48v47.531l2 130.016h18z" fill="#bbec6c"/></g><path d="m487 432.842c5.523 0 8-2.477 8-8l2-88.087v-47.53c-14.824 0-22.573 2.738-30 5.601v47.53l10 82.486z" fill="#a2e62e"/><path d="m372.742 336.755c-31.063 0-31.063 12.024-62.126 12.024-31.062 0-31.062-12.024-62.124-12.024-31.061 0-31.061 12.024-62.121 12.024-31.062 0-31.062-12.024-62.124-12.024s-31.062 12.024-62.125 12.024c-31.061 0-31.061-12.024-62.122-12.024v88.087c0 5.523 4.477 10 10 10h467c5.523 0 10-4.477 10-10l6-78.087c-14.823 0-18.573-7.262-26-4.399-8.137 3.137-15.887 6.423-32.129 6.423-31.065 0-31.065-12.024-62.129-12.024z" fill="#d1f19e"/><path d="m467 424.842c0 5.523-4.477 10-10 10h30c5.523 0 10-4.477 10-10v-88.087c-14.824 0-22.573 2.738-30 5.601z" fill="#bbec6c"/><path d="m79.286 62.158h20.761c2.761 0 5 2.239 5 5v107.593c0 2.761-2.239 5-5 5h-20.761c-2.762 0-5-2.239-5-5v-107.593c0-2.761 2.239-5 5-5z" fill="#918291"/><path d="m110.047 62.158h-20c2.761 0 5 2.239 5 5v107.593c0 2.762-2.239 5-5 5h20c2.761 0 5-2.238 5-5v-107.593c0-2.761-2.239-5-5-5z" fill="#7a6d79"/></g></svg>