<svg id="Layer_1" height="512" viewBox="0 0 512 512" width="512" xmlns="http://www.w3.org/2000/svg" data-name="Layer 1"><path d="m411.62 76.67a2 2 0 0 0 -3.94-.05c-16.46 85.63-67.25 132.55-67.25 132.55l-23.85 42.73-20.9 24.9v.01a483.819 483.819 0 0 1 -2.91 62.27l59.68-76.58c67.5-80.69 63.44-158.24 59.17-185.83z" fill="#75894d"/><path d="m207.48 238.87-39.57-24.6h-.01c-28.34-16.77-51.34-74.6-61.73-104.72a3.377 3.377 0 0 0 -6.57 1.13c.04 92.7 42.12 123.81 77.85 154.62l30.87 32.45c35.68 54.76 5.67 76.99 5.67 76.99a154.192 154.192 0 0 0 16.04 37.59l.01-.01s20.44-54.1 17.04-120.54c-5.81-20.46-21.71-40.81-39.6-52.91z" fill="#75894d"/><path d="m345.07 451.14c-25.56 5.44-44.64 4.76-58.33 1.98l-.06-.2c-9.21 2.82-14.88 2.63-14.88 2.63a52.082 52.082 0 0 1 -13.56.39h-.04a129.405 129.405 0 0 1 -30.43-3.65l-.07.3c-13.83 3.2-33.65 4.32-60.77-1.45-91.69-19.54-137.54 43.86-137.54 43.86h453.22s-45.85-63.4-137.54-43.86z" fill="#9b6a5f"/><ellipse cx="461.63" cy="112.05" fill="#8cb6f8" rx="19.84" ry="19.86"/><path d="m340.62 366.73c-49.38 90.57-66.57 88.82-68.61 88.79a158.622 158.622 0 0 1 -5.22-23.41c5.85-9.64 11.04-22.35 15.34-37.34h.01c20.7-7.36 43.58-58.57 58.22-86.16a117.332 117.332 0 0 1 14.86-22.98 140.693 140.693 0 0 1 30.56-27.21c23.95-16 61.11-9.26 84.57-2.41a4.712 4.712 0 0 1 -.58 9.17c-30.97 4.85-87.39 23.67-125.64 95.04q-1.785 3.33-3.51 6.51z" fill="#51b762"/><path d="m441.79 193.81a14.225 14.225 0 1 1 -14.21 14.23 14.218 14.218 0 0 1 14.21-14.23z" fill="#8cb6f8"/><path d="m428.31 320.5a2.531 2.531 0 0 1 2.11 4.41c-24.4 21.05-54.29 38.74-75.77 70.79-25.93 38.7-52.17 52.39-67.97 57.22-9.21 2.82-14.88 2.63-14.88 2.63.02-.03.09-.03.21-.03 2.04.03 19.23 1.78 68.61-88.79 26.09-31.54 69.41-42.77 87.69-46.23z" fill="#5fcda4"/><ellipse cx="401.02" cy="392.83" fill="#8cb6f8" rx="9.7" ry="9.71"/><path d="m355.22 285.63a117.332 117.332 0 0 0 -14.86 22.98c-14.64 27.59-37.52 78.8-58.22 86.16a344.852 344.852 0 0 0 10.63-55.69s25.67-19.15 23.81-87.18c-1.76-64.22-20.97-109.56 31.68-160.48a2.658 2.658 0 0 1 4.29 2.96c-8.58 20.03-22.49 63.12-12.12 114.79q1.23 6.135 2.93 12.42a407.649 407.649 0 0 1 9.09 40.91c1.45 8.84 2.32 16.53 2.77 23.13z" fill="#4ca987"/><path d="m308.61 55.48a14.225 14.225 0 1 1 -14.21 14.23 14.227 14.227 0 0 1 14.21-14.23z" fill="#8cb6f8"/><path d="m295.68 276.81a483.819 483.819 0 0 1 -2.91 62.27 344.852 344.852 0 0 1 -10.63 55.69h-.01c-4.3 14.99-9.49 27.7-15.34 37.34-2.78-18.75-3.02-41.53 1.45-68.96 13.26-81.4-.96-146.19-23.36-195.02a.077.077 0 0 0 -.01-.03c-.61-1.73-26.63-76.91 18.45-149.5a3.36 3.36 0 0 1 6.16 2.37c-4.66 26.32-12.76 69.66 5.06 123.35 14.01 42.22 20.43 88.7 21.14 132.48z" fill="#448e70"/><path d="m266.79 432.11a158.622 158.622 0 0 0 5.22 23.41c-.12 0-.19 0-.21.03 0 0-23.16-12.13-41.77-43.22l.01-.01s20.44-54.1 17.04-120.54a253.658 253.658 0 0 0 -10.76-62.25c-18.16-58.46-57.06-130.55-74.31-161.16a3.359 3.359 0 0 1 5.11-4.2c18.82 16.07 53.2 50.42 77.75 103.93a.077.077 0 0 1 .01.03c22.4 48.83 36.62 113.62 23.36 195.02-4.47 27.43-4.23 50.21-1.45 68.96z" fill="#90ba4f"/><path d="m207.48 238.87a128.539 128.539 0 0 1 2.1 48.18c-.5 3.64-.92 7.2-1.26 10.7-3.01 30.77-.18 56.2 5.67 76.99a154.192 154.192 0 0 0 16.04 37.59c18.61 31.09 41.77 43.22 41.77 43.22a52.082 52.082 0 0 1 -13.56.39h-.04c-17.97-1.56-49.25-11.86-65.41-61.84a.735.735 0 0 1 -.02-.08c-.05-.18-.18-.65-.44-1.38a.161.161 0 0 0 -.03-.09 193.673 193.673 0 0 1 -6.09-26.23c-1.55-9.42-2.75-18.1-3.71-26.17-.95-8.09-1.66-15.56-2.2-22.55-1.59-20.55-1.77-36.89-2.85-52.3-1.16-16.71-3.37-32.32-9.54-51.03h-.01c-4.08-12.39-9.91-26.14-18.33-42.46a4.941 4.941 0 0 1 7.29-6.28c16.73 12.36 41.6 36.22 50.62 73.34z" fill="#4ca987"/><path d="m258.2 455.94a129.405 129.405 0 0 1 -30.43-3.65c-76.09-18.88-83.14-104.66-83.14-104.66 35.93 17.83 45.61 39.07 47.67 44.92a.161.161 0 0 1 .03.09c.14.46.29.92.44 1.38a.735.735 0 0 0 .02.08c16.16 49.98 47.44 60.28 65.41 61.84z" fill="#5fcda4"/><path d="m208.32 297.75c35.68 54.76 5.67 76.99 5.67 76.99-5.85-20.79-8.68-46.22-5.67-76.99z" fill="#407760"/><path d="m186.21 366.32a193.673 193.673 0 0 0 6.09 26.23c-2.06-5.85-11.74-27.09-47.67-44.92q-2.655-1.32-5.5-2.61c-34.05-15.4-43.85-66-46.66-92.83a2.859 2.859 0 0 1 5.44-1.5c5.71 12.38 14.94 30.13 26.96 45.57a131.307 131.307 0 0 0 23.43 22.68 202.687 202.687 0 0 0 34.2 21.21c.96 8.07 2.16 16.75 3.71 26.17z" fill="#5e9967"/><path d="m180.3 317.6c.54 6.99 1.25 14.46 2.2 22.55a202.687 202.687 0 0 1 -34.2-21.21s1.69-22.74-6.13-42.88a4.424 4.424 0 0 1 6.66-5.25c11.96 8.52 28.46 23.74 31.47 46.79z" fill="#5fcda4"/><path d="m149.19 103.86a14.225 14.225 0 1 1 -14.21 14.23 14.218 14.218 0 0 1 14.21-14.23z" fill="#8cb6f8"/><ellipse cx="111.22" cy="408.14" fill="#75c0e3" rx="19.84" ry="19.86"/><path d="m47.58 307.06a14.225 14.225 0 1 1 -14.21 14.23 14.218 14.218 0 0 1 14.21-14.23z" fill="#8cb6f8"/><path d="m147.823 448.165c-78.947-7.741-118.433 46.835-118.433 46.835h30s29.484-40.751 88.433-46.835z" fill="#7f564f"/><g fill="#284268"><path d="m461.63 137.914a25.862 25.862 0 1 0 -25.84-25.862 25.88 25.88 0 0 0 25.84 25.862zm0-39.723a13.862 13.862 0 1 1 -13.84 13.861 13.866 13.866 0 0 1 13.84-13.861z"/><path d="m47.583 341.512a20.227 20.227 0 1 0 -20.212-20.227 20.242 20.242 0 0 0 20.212 20.227zm0-28.453a8.227 8.227 0 1 1 -8.212 8.226 8.227 8.227 0 0 1 8.212-8.226z"/><path d="m308.614 89.933a20.227 20.227 0 1 0 -20.214-20.226 20.243 20.243 0 0 0 20.214 20.226zm0-28.454a8.227 8.227 0 1 1 -8.212 8.228 8.229 8.229 0 0 1 8.212-8.228z"/><path d="m441.79 228.265a20.227 20.227 0 1 0 -20.212-20.227 20.242 20.242 0 0 0 20.212 20.227zm0-28.454a8.227 8.227 0 1 1 -8.212 8.227 8.229 8.229 0 0 1 8.212-8.227z"/><path d="m137.058 408.141a25.84 25.84 0 1 0 -25.84 25.859 25.88 25.88 0 0 0 25.84-25.859zm-39.68 0a13.84 13.84 0 1 1 13.84 13.859 13.866 13.866 0 0 1 -13.84-13.859z"/><path d="m401.024 377.122a15.71 15.71 0 1 0 15.7 15.71 15.724 15.724 0 0 0 -15.7-15.71zm0 19.42a3.71 3.71 0 1 1 3.7-3.71 3.711 3.711 0 0 1 -3.7 3.71z"/><path d="m29.394 501h453.212a6 6 0 0 0 4.862-9.516c-.5-.689-12.475-17.035-36.216-30.922-21.83-12.769-58.188-25.788-107.431-15.3a167.684 167.684 0 0 1 -34.33 3.965c14.923-8.861 32.652-24.076 50.146-50.188 15.195-22.679 34.913-38.041 53.982-52.9 7.241-5.641 14.08-10.969 20.718-16.7a8.533 8.533 0 0 0 -7.149-14.851c-12.665 2.4-38.381 8.738-62.118 23.446 35.612-48.851 80.178-62.956 105.626-66.935a10.713 10.713 0 0 0 1.331-20.86c-48.794-14.241-75.646-6.129-89.58 3.184a153.49 153.49 0 0 0 -22.58 18.3q-.47-3.687-1.063-7.521c66.717-81.156 63.351-158.708 58.749-188.461a8 8 0 0 0 -15.765-.265c-11.958 62.201-42.775 103.824-57.443 120.747-5.915-43.963 5.47-80.224 13.717-99.484a8.654 8.654 0 0 0 -13.968-9.634c-43.7 42.26-40.166 81.659-36.069 127.278 1.016 11.324 2.058 23.021 2.479 35.424l-9.322 11.113c-1.988-42.038-9.141-82.916-20.95-118.493-17.074-51.443-9.548-93.865-5.052-119.211l.212-1.2a9.365 9.365 0 0 0 -17.172-6.587c-24.363 39.23-28.251 79.137-27.22 105.707.13 3.356.34 6.577.6 9.663a310.088 310.088 0 0 0 -60.59-71.191 9.355 9.355 0 0 0 -14.225 11.71c16.149 28.651 55.668 101.6 73.806 160a230.719 230.719 0 0 1 6.824 28.294 111.141 111.141 0 0 0 -24.61-24.349c-9.782-37.41-34.925-61.654-52.381-74.551a10.936 10.936 0 0 0 -16.185 13.848c2.938 5.695 5.539 11.048 7.868 16.144-11.151-14.7-25.374-39.937-40.267-83.11a9.377 9.377 0 0 0 -18.24 3.084c.037 90.852 39.64 124.705 74.58 154.573 1.157.988 2.3 1.97 3.447 2.954.339 5.371.591 10.9.846 16.733a95.276 95.276 0 0 0 -20.163-19.017 10.429 10.429 0 0 0 -15.737 12.316c3.732 9.6 5.141 19.971 5.631 27.786a109.452 109.452 0 0 1 -12.6-13.451c-11.716-15.047-20.739-32.445-26.245-44.392a8.862 8.862 0 0 0 -16.859 4.638c3.086 29.4 13.706 81.179 50.157 97.669q1.219.552 2.4 1.111a153.663 153.663 0 0 0 17.875 52.884c8.9 15.7 23.216 33.233 45.692 44.758a167.638 167.638 0 0 1 -34.443-3.973c-49.244-10.494-85.6 2.527-107.431 15.3-23.743 13.882-35.72 30.233-36.218 30.917a6 6 0 0 0 4.862 9.516zm385.766-171.306c-2.9 2.3-5.874 4.617-8.916 6.988-19.817 15.438-40.308 31.4-56.576 55.683-17.8 26.566-35.574 40.545-48.664 47.861q18.789-22.854 44.548-70.033c19.537-23.363 49.402-34.993 69.608-40.499zm-26.045-66.281c20.6-13.768 53.3-8.619 74.062-3.163-32.549 6.324-87 27.47-124.335 97.131-36.371 67.86-55.32 85.746-62.757 90.458q-1.834-7.064-3.042-14.532c5.289-9.187 10.006-20.77 14.014-34.147 17.119-8.558 33.342-38.281 51.139-73.249 2.663-5.234 5.18-10.178 7.469-14.493.2-.384.437-.837.7-1.354 3.518-6.821 14.213-27.579 42.75-46.651zm18.585-161.024c.467 34.335-7.763 88.721-51.724 146.107q-2.752-13.512-6.818-28.483c-.811-2.982-1.521-5.935-2.165-8.864 9.465-9.607 42.98-46.839 60.707-108.76zm-106.529 206.978c.488-10.13.661-20.284.541-30.406l8.753-10.436c-.978 22.214-5.234 37.621-9.692 47.911.147-2.345.284-4.699.398-7.069zm-2.719 32.665c6.536-6.44 25.763-30.561 24.125-90.3-.373-13.623-1.5-26.232-2.6-38.426-3.545-39.476-6.426-71.561 20.978-105.156-8.765 26.714-16.2 67.9-3.381 115.01 6.258 23.006 10.113 43.363 11.482 60.574a119.957 119.957 0 0 0 -13.355 20.83c-.241.468-.452.878-.636 1.225-2.338 4.406-4.876 9.394-7.564 14.675-9.622 18.9-22.934 45.061-35.391 59.213a381.185 381.185 0 0 0 6.342-37.645zm-37.436-307.054c-4.184 26.864-7.354 65.491 7.827 111.23 15.864 47.8 23.089 105.536 20.342 162.582-1.9 39.5-8.524 75.4-18.3 100.886a241 241 0 0 1 3.279-45.564c11.677-71.707 3.7-138.32-23.685-198.144-.6-1.759-6.563-19.892-7.5-45.726-.801-21.794 1.948-53.19 18.037-85.264zm-85.95 44.545a304.5 304.5 0 0 1 61.139 84.31c29.081 59.437 37.867 126.172 26.113 198.351-4.717 28.965-4.709 55.558 0 79.3a126.269 126.269 0 0 1 -23.164-25.984c-.832-1.234-1.667-2.528-2.5-3.863a325.056 325.056 0 0 0 13.083-55.626c8.615-57.818.576-101.658-7.684-128.255-15.98-51.444-48.038-113.606-66.987-148.233zm40.46 208.343a140.84 140.84 0 0 0 .633-34.248c11.63 11.133 20.825 25.336 24.9 39.009 2.165 45.105-6.806 84.555-12.417 104.252a153.118 153.118 0 0 1 -7.792-20.377 41.329 41.329 0 0 0 9.512-18.292c4.337-17.68-1-38.5-15.843-61.912.292-2.77.615-5.57 1.007-8.432zm1.381 72.968a198.83 198.83 0 0 1 -3.738-41.991c9.195 20.468 7.258 34.014 3.738 41.991zm-110.842-233.951c12.225 32.185 32.3 75.2 56.818 91.311a179.472 179.472 0 0 1 7.193 32.873c-30.345-26.18-59.983-55.482-64.011-124.184zm50.953 46.324c22.506 17.8 54.674 54.195 46.619 113.031-9.225 67.38 8.813 111.132 25.569 135.97a139.163 139.163 0 0 0 23.558 26.9 58.848 58.848 0 0 1 -22.717-9.551c-13.925-9.695-24.445-25.412-31.431-46.883a24.126 24.126 0 0 0 -.779-2.458 189.74 189.74 0 0 1 -5.709-24.868c-5.633-34.324-6.682-58.376-7.607-79.6-1.596-36.579-2.759-63.28-27.503-112.541zm17.305 145c.283 3.658.611 7.441 1 11.378a205.35 205.35 0 0 1 -20.892-13.545c.16-6.624-.1-22-4.942-37.241 14.516 11.464 22.861 24.701 24.834 39.401zm-73.023-47.407a218.018 218.018 0 0 0 18.836 29.14c18.213 23.391 47.32 39.356 56.795 44.155.8 6.393 1.749 13.168 2.9 20.405-8.505-8.178-20.73-17.032-38.233-24.95-24.634-11.143-35.529-44.187-40.298-68.75zm66.266 128.108a141.812 141.812 0 0 1 -15.034-40.1c13 7.881 21.038 15.818 25.805 21.744a50.854 50.854 0 0 1 8.176 13.636c6.148 19.823 15.083 35.521 26.721 46.939-19.051-8.285-34.334-22.387-45.666-42.215zm-100.759 72.012c29.089-17.015 62.354-21.7 98.871-13.917 23.742 5.059 44.828 5.583 62.7 1.577a136.083 136.083 0 0 0 29.4 3.353c2.122.18 4.081.251 5.836.251a54.679 54.679 0 0 0 8.692-.632 57.594 57.594 0 0 0 14.342-2.346c17.225 3.3 37.287 2.567 59.671-2.2 36.309-7.735 69.417-3.146 98.4 13.645a126.443 126.443 0 0 1 24.37 18.349h-426.202a126.325 126.325 0 0 1 23.92-18.08z"/><path d="m191.762 469.826h-72.162a6 6 0 0 0 0 12h72.162a6 6 0 0 0 0-12z"/><path d="m99.429 469.826h-5.146a6 6 0 0 0 0 12h5.146a6 6 0 0 0 0-12z"/><path d="m149.187 138.314a20.227 20.227 0 1 0 -20.211-20.227 20.242 20.242 0 0 0 20.211 20.227zm0-28.454a8.227 8.227 0 1 1 -8.211 8.227 8.228 8.228 0 0 1 8.211-8.227z"/></g></svg>