<svg height="512pt" viewBox="0 -11 512 512" width="512pt" xmlns="http://www.w3.org/2000/svg"><path d="m503.550781 312.011719c-3.242187 2.300781-43.945312 30.71875-69.714843-5.378907-23.722657-33.277343-26.371094-62.378906-67.757813-87.125 1.367187-3.925781 2.304687-7.335937 3.074219-10.324218 1.046875-4.25.175781-8.742188-2.390625-12.289063-73.300781 85.847657-148.648438 107.777344-193.707031 112.386719 12.628906 20.136719 22.699218 35.839844 28.417968 44.796875 3.460938 5.457031 10.035156 8.070313 16.296875 6.488281 4.675781-1.105468 9.265625-2.53125 13.738281-4.269531 7.96875 16.898437 20.167969 31.449219 35.414063 42.242187 37.546875 26.707032 48.214844 58.964844 37.375 91.21875 17.652344-13.898437 27.167969-35.71875 25.347656-58.109374 16.847657 14.109374 39.296875 19.59375 60.753907 14.847656 0 0-16.125-5.292969-21.417969-32.171875-1.464844-7.914063-3.632813-15.683594-6.484375-23.210938 4.695312-.988281 9.210937-2.6875 13.398437-5.035156 48.46875-27.050781 80.554688 15.875 80.46875 48.128906 0 0 29.609375-49.238281-10.070312-76.886719 15.957031-3.242187 36.523437-14.417968 57.257812-45.308593zm0 0" fill="#f9eab0"/><path d="m304.296875 489.757812c10.839844-32.253906.171875-64.511718-37.375-91.21875-15.246094-10.792968-27.445313-25.34375-35.414063-42.242187 13.761719-5.382813 26.828126-12.402344 38.914063-20.90625 10.238281 32.171875 42.238281 38.828125 55.636719 79.105469 1.859375 5.558594 3.0625 11.3125 3.585937 17.152344 1.820313 22.390624-7.695312 44.210937-25.347656 58.109374zm0 0" fill="#f9eab0"/><path d="m390.398438 446.496094c-21.457032 4.746094-43.90625-.738282-60.753907-14.847656-.523437-5.839844-1.726562-11.59375-3.585937-17.152344-13.398438-40.277344-45.398438-46.933594-55.636719-79.105469 12.546875-8.816406 24.363281-18.632813 35.328125-29.355469 6.367188 14.234375 15.109375 27.277344 25.855469 38.574219 13.601562 13.03125 24.148437 28.914063 30.890625 46.503906 2.851562 7.527344 5.019531 15.296875 6.484375 23.210938 5.292969 26.878906 21.417969 32.171875 21.417969 32.171875zm0 0" fill="#fac176"/><path d="m456.363281 434.207031c.085938-32.253906-32-75.179687-80.46875-48.128906-4.1875 2.347656-8.703125 4.046875-13.398437 5.035156-6.742188-17.589843-17.289063-33.472656-30.890625-46.503906-10.746094-11.296875-19.488281-24.339844-25.855469-38.574219 1.535156-1.449218 2.984375-2.898437 4.4375-4.351562 6.824219-6.824219 12.882812-13.394532 18.261719-19.796875 4.605469 4.863281 9.726562 10.921875 15.445312 18.261719 26.195313 33.792968 39.421875 33.367187 61.523438 39.339843 12.261719 3.164063 24.054687 7.925781 35.074219 14.164063 2.027343 1.0625 3.96875 2.292968 5.800781 3.667968 39.679687 27.648438 10.070312 76.886719 10.070312 76.886719zm0 0" fill="#f9eab0"/><path d="m503.550781 312.011719c-20.734375 30.890625-41.300781 42.066406-57.257812 45.308593-1.832031-1.375-3.773438-2.605468-5.800781-3.667968-11.019532-6.238282-22.8125-11-35.074219-14.164063-10.136719-33.113281-30.289063-62.269531-57.683594-83.457031 7.5625-11.390625 13.722656-23.65625 18.34375-36.523438 41.386719 24.746094 44.035156 53.847657 67.757813 87.125 25.769531 36.097657 66.472656 7.679688 69.714843 5.378907zm0 0" fill="#fac176"/><path d="m405.417969 339.488281c-22.101563-5.972656-35.328125-5.546875-61.523438-39.339843-5.71875-7.339844-10.839843-13.398438-15.445312-18.261719 7.03125-8.148438 13.476562-16.789063 19.285156-25.855469 27.394531 21.1875 47.546875 50.34375 57.683594 83.457031zm0 0" fill="#f18d46"/><path d="m366.761719 196.894531c-1.078125-1.601562-2.46875-2.964843-4.09375-4.007812-11.605469-7.425781-34.648438-22.101563-63.660157-40.195313-25.601562-15.957031-55.894531-34.558594-87.039062-53.160156-27.5625-16.554688-55.808594-33.023438-82.175781-47.703125-60.929688-34.046875-111.617188-58.367187-119.722657-50.261719-6.402343 6.402344 7.765626 40.023438 31.058594 84.308594 11.863282 22.53125 26.027344 47.789062 41.132813 73.730469 16.382812 28.246093 33.792969 57.257812 50.261719 84.136719 14.761718 24.234374 28.757812 46.765624 40.53125 65.539062 12.628906 20.136719 22.699218 35.839844 28.417968 44.796875 3.460938 5.457031 10.035156 8.070313 16.296875 6.488281 4.675781-1.105468 9.265625-2.53125 13.738281-4.269531 13.761719-5.382813 26.828126-12.402344 38.914063-20.90625 12.546875-8.816406 24.363281-18.632813 35.328125-29.355469 1.535156-1.449218 2.984375-2.898437 4.4375-4.351562 6.824219-6.824219 12.882812-13.394532 18.261719-19.796875 16.277343-18.296875 29.035156-39.445313 37.628906-62.378907 1.367187-3.925781 2.304687-7.335937 3.074219-10.324218 1.046875-4.25.175781-8.742188-2.390625-12.289063zm0 0" fill="#955ba5"/><path d="m369.152344 209.183594c-.769532 2.988281-1.707032 6.398437-3.074219 10.324218-4.621094 12.867188-10.78125 25.132813-18.34375 36.523438-5.808594 9.066406-12.253906 17.707031-19.285156 25.855469-5.378907 6.402343-11.4375 12.972656-18.261719 19.796875-1.453125 1.453125-2.902344 2.902344-4.4375 4.351562-10.964844 10.722656-22.78125 20.539063-35.328125 29.355469-12.085937 8.503906-25.152344 15.523437-38.914063 20.90625-4.472656 1.738281-9.0625 3.164063-13.738281 4.269531-6.261719 1.582032-12.835937-1.03125-16.296875-6.488281-5.71875-8.957031-15.789062-24.660156-28.417968-44.796875 45.058593-4.609375 120.40625-26.539062 193.707031-112.386719 2.566406 3.546875 3.4375 8.039063 2.390625 12.289063zm0 0" fill="#955ba5"/><path d="m366.761719 196.894531c-73.300781 85.847657-148.648438 107.777344-193.707031 112.386719-11.773438-18.773438-25.769532-41.304688-40.53125-65.539062 39.421874-5.375 101.203124-25.429688 166.484374-90.964844v-.085938c29.011719 18.09375 52.054688 32.769532 63.660157 40.195313 1.625 1.042969 3.015625 2.40625 4.09375 4.007812zm0 0" fill="#894b9d"/><path d="m299.007812 152.691406v.085938c-65.28125 65.535156-127.0625 85.589844-166.484374 90.964844-16.46875-26.878907-33.878907-55.890626-50.261719-84.136719 31.402343-.34375 77.738281-11.605469 129.707031-60.074219 31.144531 18.601562 61.4375 37.203125 87.039062 53.160156zm0 0" fill="#955ba5"/><path d="m211.96875 99.53125c-51.96875 48.46875-98.304688 59.730469-129.707031 60.074219-15.105469-25.941407-29.269531-51.199219-41.132813-73.730469h.085938c32.578125-.742188 63.886718-12.777344 88.578125-34.046875 26.367187 14.679687 54.613281 31.148437 82.175781 47.703125zm0 0" fill="#894b9d"/><path d="m129.792969 51.828125c-24.691407 21.269531-56 33.304687-88.578125 34.046875h-.085938c-23.292968-44.285156-37.460937-77.90625-31.058594-84.308594 8.105469-8.105468 58.792969 16.214844 119.722657 50.261719zm0 0" fill="#955ba5"/><path d="m221.867188 455.371094c0 18.851562-15.28125 34.132812-34.132813 34.132812s-34.132813-15.28125-34.132813-34.132812c0-18.851563 15.28125-34.132813 34.132813-34.132813s34.132813 15.28125 34.132813 34.132813zm0 0" fill="#2fa8cc"/><path d="m136.535156 378.570312c0 9.425782-7.644531 17.066407-17.070312 17.066407-9.425782 0-17.066406-7.640625-17.066406-17.066407 0-9.425781 7.640624-17.066406 17.066406-17.066406 9.425781 0 17.070312 7.640625 17.070312 17.066406zm0 0" fill="#b0d3f0"/><path d="m341.332031 37.238281c0 14.136719-11.460937 25.597657-25.597656 25.597657-14.140625 0-25.601563-11.460938-25.601563-25.597657 0-14.140625 11.460938-25.601562 25.601563-25.601562 14.136719 0 25.597656 11.460937 25.597656 25.601562zm0 0" fill="#2fa8cc"/><path d="m409.601562 79.902344c0 9.425781-7.640624 17.066406-17.066406 17.066406-9.425781 0-17.070312-7.640625-17.070312-17.066406 0-9.425782 7.644531-17.066406 17.070312-17.066406 9.425782 0 17.066406 7.640624 17.066406 17.066406zm0 0" fill="#b0d3f0"/><path d="m503.464844 148.171875h-110.929688c-4.714844 0-8.535156-3.820313-8.535156-8.535156 0-4.710938 3.820312-8.53125 8.535156-8.53125h110.929688c4.714844 0 8.535156 3.820312 8.535156 8.53125 0 4.714843-3.820312 8.535156-8.535156 8.535156zm0 0" fill="#2fa8cc"/><path d="m503.464844 182.304688h-17.066406c-4.710938 0-8.53125-3.820313-8.53125-8.535157 0-4.710937 3.820312-8.53125 8.53125-8.53125h17.066406c4.714844 0 8.535156 3.820313 8.535156 8.53125 0 4.714844-3.820312 8.535157-8.535156 8.535157zm0 0" fill="#b0d3f0"/><path d="m452.265625 182.304688h-42.664063c-4.714843 0-8.535156-3.820313-8.535156-8.535157 0-4.710937 3.820313-8.53125 8.535156-8.53125h42.664063c4.714844 0 8.535156 3.820313 8.535156 8.53125 0 4.714844-3.820312 8.535157-8.535156 8.535157zm0 0" fill="#b0d3f0"/><path d="m93.867188 293.238281h-76.800782c-4.710937 0-8.53125-3.820312-8.53125-8.535156 0-4.710937 3.820313-8.53125 8.53125-8.53125h76.800782c4.710937 0 8.53125 3.820313 8.53125 8.53125 0 4.714844-3.820313 8.535156-8.53125 8.535156zm0 0" fill="#2fa8cc"/><g fill="#b0d3f0"><path d="m17.066406 327.371094h-8.53125c-4.714844 0-8.535156-3.820313-8.535156-8.535156 0-4.710938 3.820312-8.53125 8.535156-8.53125h8.53125c4.714844 0 8.535156 3.820312 8.535156 8.53125 0 4.714843-3.820312 8.535156-8.535156 8.535156zm0 0"/><path d="m119.464844 327.371094h-68.265625c-4.710938 0-8.53125-3.820313-8.53125-8.535156 0-4.710938 3.820312-8.53125 8.53125-8.53125h68.265625c4.714844 0 8.535156 3.820312 8.535156 8.53125 0 4.714843-3.820312 8.535156-8.535156 8.535156zm0 0"/></g></svg>