<svg id="Capa_1" enable-background="new 0 0 497 497" height="512" viewBox="0 0 497 497" width="512" xmlns="http://www.w3.org/2000/svg"><path d="m0 346.38v-320.82c22.35-11.18 48.65-11.18 71 0 11.18 5.59 23.34 8.39 35.5 8.39s24.32-2.8 35.5-8.39 23.34-8.39 35.5-8.39 24.32 2.8 35.5 8.39 23.34 8.39 35.5 8.39 24.32-2.8 35.5-8.39 23.34-8.39 35.5-8.39 24.32 2.8 35.5 8.39 23.34 8.39 35.5 8.39 24.32-2.8 35.5-8.39 23.34-8.39 35.5-8.39 24.32 2.8 35.5 8.39v320.82l-268.526 100.656z" fill="#a4e6ff"/><path d="m30 17.374c-10.309.716-20.511 3.439-30 8.186v320.82l30 13.217z" fill="#5bd6fd"/><path d="m336.285 269.747c-7.21-4.17-12.328-11.221-14.06-19.368-1.197-5.634-3.637-11.245-7.356-16.369-12.442-17.14-34.495-22.347-49.257-11.631s-16.643 33.298-4.201 50.437c3.72 5.124 8.299 9.181 13.285 12.065 7.21 4.17 12.328 11.221 14.06 19.368 1.197 5.634 3.637 11.245 7.356 16.369 3.72 5.124 8.299 9.181 13.285 12.065 7.21 4.17 12.328 11.221 14.06 19.368 1.197 5.634 3.637 11.245 7.356 16.369 12.442 17.14 34.495 22.347 49.257 11.631s16.643-33.298 4.201-50.437c-3.72-5.124-8.299-9.181-13.285-12.065-7.21-4.17-12.328-11.221-14.06-19.368-1.197-5.634-3.637-11.245-7.356-16.369s-8.298-9.181-13.285-12.065z" fill="#00c071"/><path d="m380.078 387.553c-2.32 0-4.608-1.073-6.076-3.095l-90.71-124.958c-2.434-3.352-1.688-8.042 1.664-10.475 3.352-2.434 8.042-1.688 10.475 1.664l90.71 124.958c2.434 3.352 1.688 8.042-1.664 10.475-1.331.966-2.872 1.431-4.399 1.431z" fill="#80dfb5"/><path d="m430.171 249.024c-3.385-7.611-3.385-16.323 0-23.933 2.341-5.263 3.663-11.236 3.663-17.568 0-21.18-14.788-38.349-33.029-38.349s-33.029 17.169-33.029 38.349c0 6.332 1.322 12.305 3.663 17.568 3.385 7.611 3.385 16.323 0 23.933-2.341 5.263-3.663 11.236-3.663 17.568s1.322 12.305 3.663 17.568c3.385 7.611 3.385 16.323 0 23.933-2.341 5.263-3.663 11.236-3.663 17.568 0 21.18 14.788 38.349 33.029 38.349s33.029-17.169 33.029-38.349c0-6.332-1.322-12.305-3.663-17.568-3.385-7.611-3.385-16.323 0-23.933 2.341-5.263 3.663-11.236 3.663-17.568s-1.322-12.305-3.663-17.568z" fill="#36d39a"/><path d="m400.805 371.511c-4.142 0-7.5-3.358-7.5-7.5v-154.411c0-4.142 3.358-7.5 7.5-7.5s7.5 3.358 7.5 7.5v154.411c0 4.142-3.358 7.5-7.5 7.5z" fill="#80dfb5"/><path d="m155.335 383.435.035-.026c11.374-8.607 11.374-25.699 0-34.306l-.035-.026.009-.03c4.145-13.653-5.91-27.485-20.176-27.754l-.04-.001v-.001c-4.664-13.498-20.944-18.787-32.651-10.608l-.007.005-.007-.005c-11.706-8.179-27.987-2.89-32.651 10.608l-.041.001c-14.266.27-24.321 15.101-20.176 28.754l.009 9.031z" fill="#817cd0"/><path d="m186.42 108.38c-5.33-1.16-10.83-1.77-16.46-1.77-8.17 0-16.07 1.28-23.54 3.66-2.447.826-28.015 39.55-28.015 39.55v39.953l28.015 42.147c7.47 2.38 15.37 3.66 23.54 3.66 5.63 0 11.13-.61 16.46-1.77z" fill="#5c586f"/><path d="m104.403 183.738c-2.952 7.574-7.418 15.048-13.329 21.337-4.358 4.636-9.883 8.91-16.759 10.777-5.854 1.589-13.349 1.659-18.78-1.291-11.611-6.308-7.51-21.573-2.306-33.184 2.973-6.633 2.973-13.93 0-20.563-5.204-11.611-9.305-26.876 2.306-33.184 5.43-2.95 12.926-2.88 18.78-1.291 6.876 1.867 12.402 6.14 16.759 10.777 5.911 6.289 10.377 13.763 13.329 21.337z" fill="#5c586f"/><path d="m91.074 179.075c-4.358 4.636-9.883 8.91-16.759 10.777-5.854 1.589-13.349 1.659-18.78-1.291-1.63-.886-2.941-1.953-3.992-3.157-4.238 10.896-6.317 23.556 3.992 29.157 5.43 2.95 12.926 2.88 18.78 1.291 6.876-1.867 12.402-6.14 16.759-10.777 5.911-6.289 10.377-13.763 13.329-21.337v-25.285c-.047-.119-.101-.238-.149-.358-2.952 7.451-7.362 14.79-13.18 20.98z" fill="#423e4f"/><path d="m146.42 231.92c.278.089.561.165.841.25 2.534.776 5.112 1.437 7.736 1.953 4.856.956 9.857 1.456 14.963 1.456 5.63 0 11.13-.61 16.46-1.77v-30c-5.33 1.16-10.83 1.77-16.46 1.77-8.17 0-16.07-1.28-23.54-3.66-3.854-1.23-7.594-2.755-11.2-4.551z" fill="#423e4f"/><path d="m146.42 110.27c-25.022 7.987-45.271 28.382-54.952 54.759-1.437 3.916-1.437 8.225 0 12.141 9.68 26.377 29.93 46.762 54.952 54.749-7.04-17.92-10.82-38.94-10.82-60.82 0-21.879 3.78-42.909 10.82-60.829z" fill="#fab659"/><path d="m247.72 179.1c-10.89 27.85-33.68 48.7-61.3 54.71-.78-1.2-1.55-2.46-2.3-3.79-8.59-15.23-13.52-36.71-13.52-58.92 0-22.22 4.93-43.7 13.52-58.93.75-1.33 1.52-2.59 2.3-3.79 27.62 6.01 50.41 26.86 61.3 54.71 2.01 5.15 2.01 10.86 0 16.01z" fill="#fab659"/><path d="m137.638 198.517c-18.178-8.305-33.164-23.394-42.375-42.417-4.197 8.669-6.331 14.159-3.795 21.071 7.814 21.29 23.027 39.828 43.594 50.122 3.655 1.829 7.448 3.38 11.357 4.628-4.029-10.259-6.985-21.535-8.781-33.404z" fill="#f59e18"/><path d="m246.117 159.258c-.471-1.064-.955-2.121-1.46-3.163-11.774 24.315-32.983 42.22-58.237 47.715-3.826.833-7.741 1.377-11.728 1.62 2.281 9.165 5.458 17.55 9.428 24.59.75 1.33 1.52 2.59 2.3 3.79 28.287-6.155 50.681-27.552 61.3-54.71.976-2.501 1.507-5.212 1.507-8.005 0-4.642-1.298-7.726-3.11-11.837z" fill="#f59e18"/><circle cx="291.114" cy="145.755" fill="#fff" r="18.641"/><circle cx="335.144" cy="83.115" fill="#fff" r="25.048"/><path d="m213.002 177.686c-4.142 0-7.5-3.358-7.5-7.5v-12c0-4.142 3.358-7.5 7.5-7.5s7.5 3.358 7.5 7.5v12c0 4.142-3.358 7.5-7.5 7.5z" fill="#423e4f"/><path d="m497 346.38s-114.7-12.893-268.526 51.746v48.911h207.921l60.605-37.267z" fill="#00c071"/><path d="m491.668 380.247c-41.883 7.564-79.369 11.241-114.605 11.241-.009 0-.021 0-.029 0-38.932-.002-71.371-4.529-100.987-11.427-15.358 5.223-31.242 11.203-47.573 18.065v48.911h207.921l60.605-37.267v-30.486z" fill="#00a45b"/><path d="m94.743 307.295c-10.233-2.24-21.233 3.293-24.931 13.995l-.041.001c-14.266.27-24.321 15.101-20.176 28.754l.009 9.031 45.69 10.526c-24.532-27.318-11.412-50.382-.551-62.307z" fill="#635ac5"/><path d="m497 409.77v70.06h-497v-133.45c187.89 0 235.7 110.58 497 63.39z" fill="#36d39a"/><path d="m0 346.38v133.45h30v-132.476c-9.611-.633-19.589-.974-30-.974z" fill="#00c071"/></svg>