<svg id="Capa_1" enable-background="new 0 0 512 512" height="512" viewBox="0 0 512 512" width="512" xmlns="http://www.w3.org/2000/svg"><g><g><path d="m245 11c-86.783 0-163.024 45.123-206.55 113.185l-21.118 222.477c3.541 8.885 7.583 17.517 12.099 25.855l46.974 17.972 7.691 50.261c43.044 37.521 99.318 60.25 160.904 60.25 135.31 0 245-109.69 245-245s-109.69-245-245-245z" fill="#a3ea6e"/></g><g><circle cx="260" cy="256" fill="#85d249" r="210"/></g><g><path d="m239.298 295.255s-.383 42.894 6.702 81.191-10.835 69.447-26.385 79.66-7.381-56.681-15.551-76.085-20.649-53.797-20.649-53.797v-30.969z" fill="#603f42"/></g><g><path d="m503.825 160.566-285.733-1.477-209.002 163.251c2.33 8.3 5.08 16.42 8.24 24.34 21.98 1.09 55.3.42 104.01-5.47 111.959-13.538 390.66-132.593 390.66-164.08 0-11.92-8.175-16.564-8.175-16.564z" fill="#e1eaf9"/></g><g><path d="m448.011 205.431c18.377-20.695 26.247-37.461 29.156-45.002l-16.283-.084c-8.362 17.661-35.701 61.269-113.849 101.435 23.639-15.496 41.313-31.423 54.113-45.202 22.563-24.291 33.973-45.702 38.782-56.341l-16.628-.086c-5.48 10.644-15.735 27.476-33.144 46.218-18.471 19.885-47.667 44.478-91.392 65.278 28.533-18.717 48.729-38.642 62.436-55.232 20.96-25.367 30.712-47.176 34.253-56.408l-16.219-.084c-4.456 10.102-13.625 27.744-30.125 47.573-19.224 23.102-51.921 53.107-103.926 76.234-4.851 2.157-10.609.156-12.959-4.605-14.75-29.886-49.555-48.739-83.579-65.792l-139.557 109.007c2.33 8.3 5.08 16.42 8.24 24.34 21.98 1.09 55.3.42 104.01-5.47 65.243-7.889 187.107-51.611 277.448-92.955 22.483-15.62 38.336-30.565 49.223-42.824z" fill="#c5def8"/></g><g><path d="m504.83 159.09c0 3.4-13.49 4.68-32.49 5.42-36.07 1.4-91.97.85-113.04 9.21-32.17 12.77-43.56 60.77-88.85 85.28-42.34 22.91-126.24 58.75-261.36 63.34-5.92-21.1-9.09-43.35-9.09-66.34 0-34.43 7.1-67.19 19.92-96.91 5.24-12.18 11.45-23.85 18.53-34.91 82.24-5.85 231.25-14.07 313.7-4.07 49.09 5.95 83.76 11.98 107.51 17.71 33.33 8.05 45.17 15.5 45.17 21.27z" fill="#7e5966"/></g><g><path d="m69.301 122.098c-11.029.705-21.387 1.409-30.851 2.082-7.08 11.06-13.29 22.73-18.53 34.91-12.82 29.72-19.92 62.48-19.92 96.91 0 22.99 3.17 45.24 9.09 66.34 101.852-3.46 174.595-24.676 222.378-44.725-37.56-71.871-191.997-79.222-162.167-155.517z" fill="#725057"/></g><g><circle cx="284.936" cy="206.461" fill="#603f42" r="10"/></g><g><circle cx="289.936" cy="201.461" fill="#fff" r="5"/></g><g><path d="m190.355 274.83c-29.206 0-57.702 8.927-81.719 25.546-12.644 8.75-26.026 19.126-36.828 30.113-12.234 12.445-28.038 28.024-42.378 42.028 14.038 25.918 32.617 49.015 54.665 68.233 22.363-15.67 44.478-34.319 60.749-55.112 33.918-43.346 48.914-79.292 54.998-97.644 2.148-6.481-2.659-13.164-9.487-13.164z" fill="#725057"/></g><g><path d="m188.679 274.862c-28.619.335-56.486 9.213-80.043 25.514-12.644 8.75-26.026 19.126-36.828 30.113-12.234 12.445-28.038 28.024-42.378 42.028 4.849 8.953 10.253 17.56 16.141 25.796 38.289-16.809 95.816-52.134 143.108-123.451z" fill="#603f42"/></g></g></svg>