<svg height="512" viewBox="0 0 128 128" width="512" xmlns="http://www.w3.org/2000/svg"><g><g><path d="m110.237 88.531h-92.474l-16.013 32.281h124.5z" fill="#555a67"/><path d="m17.763 30.315h92.474v58.216h-92.474z" fill="#fed742"/><path d="m14.25 17.315h100.5a5 5 0 0 1 5 5v5a3 3 0 0 1 -3 3h-104.5a3 3 0 0 1 -3-3v-5a5 5 0 0 1 5-5z" fill="#555a67"/><path d="m42.2 58.242v-6.142a10.745 10.745 0 0 0 2.83-6.851 6.83 6.83 0 1 0 -13.66 0 10.745 10.745 0 0 0 2.83 6.851v6.143l-4.4 6.842a22.358 22.358 0 0 0 -2.8 17.841l1.491 5.605h19.422l1.487-5.605a22.362 22.362 0 0 0 -2.8-17.842z" fill="#f1f1f1"/><path d="m34.202 52.099h8v6.144h-8z" fill="#ff7c48"/><path d="m85.8 58.242v-6.142a10.746 10.746 0 0 1 -2.831-6.851 6.831 6.831 0 1 1 13.661 0 10.745 10.745 0 0 1 -2.83 6.851v6.143l4.4 6.842a22.358 22.358 0 0 1 2.8 17.841l-1.491 5.605h-19.422l-1.487-5.605a22.362 22.362 0 0 1 2.8-17.842z" fill="#f1f1f1"/><path d="m85.798 52.099h8v6.144h-8z" fill="#ff7c48"/><path d="m68 58.242v-6.142a10.745 10.745 0 0 0 2.83-6.851 6.83 6.83 0 1 0 -13.66 0 10.745 10.745 0 0 0 2.83 6.851v6.143l-4.4 6.842a22.362 22.362 0 0 0 -2.8 17.842l1.491 5.605h19.42l1.489-5.606a22.362 22.362 0 0 0 -2.8-17.842z" fill="#f1f1f1"/><path d="m60 52.099h8v6.144h-8z" fill="#ff7c48"/><path d="m28.25 7.188h71.5v10.126h-71.5z" fill="#ade338"/><path d="m86.131 118.764a22.131 22.131 0 0 0 -44.262 0c0 .691.036 1.373.1 2.048h44.064c.067-.675.098-1.357.098-2.048z" fill="#ade338"/><g fill="#55bc24"><path d="m65.5 106.741h-3a1.75 1.75 0 1 1 0-3.5h3a1.75 1.75 0 0 1 0 3.5z"/><path d="m58.872 114.449h-3a1.75 1.75 0 0 1 0-3.5h3a1.75 1.75 0 0 1 0 3.5z"/><path d="m72.128 114.449h-3a1.75 1.75 0 0 1 0-3.5h3a1.75 1.75 0 0 1 0 3.5z"/></g></g><g><path d="m127.817 120.034-15.83-31.913v-56.056h4.763a4.756 4.756 0 0 0 4.75-4.75v-5a6.757 6.757 0 0 0 -6.75-6.75h-13.25v-8.376a1.749 1.749 0 0 0 -1.75-1.75h-71.5a1.749 1.749 0 0 0 -1.75 1.75v8.376h-12.25a6.757 6.757 0 0 0 -6.75 6.75v5a4.756 4.756 0 0 0 4.75 4.75h3.763v56.056l-15.83 31.913a1.749 1.749 0 0 0 1.567 2.527h124.5a1.749 1.749 0 0 0 1.567-2.527zm-116.817-92.719v-5a3.254 3.254 0 0 1 3.25-3.25h25.25a1.75 1.75 0 0 0 0-3.5h-9.5v-6.626h68v6.626h-28.75a1.75 1.75 0 1 0 0 3.5h45.5a3.254 3.254 0 0 1 3.25 3.25v5a1.252 1.252 0 0 1 -1.25 1.25h-104.5a1.251 1.251 0 0 1 -1.25-1.25zm97.487 4.75v54.716h-6.7l.905-3.405a23.954 23.954 0 0 0 .519-9.937 1.75 1.75 0 1 0 -3.457.541 20.517 20.517 0 0 1 -.444 8.5l-1.145 4.305h-16.732l-1.146-4.305a20.657 20.657 0 0 1 2.582-16.445l3.884-6.039h6.09l3.883 6.039a1.75 1.75 0 1 0 2.943-1.893l-4.121-6.41v-4.975a12.434 12.434 0 0 0 2.83-7.509 8.58 8.58 0 1 0 -17.16 0 12.428 12.428 0 0 0 2.83 7.509v4.971l-4.122 6.41a24.085 24.085 0 0 0 -3.026 6.884 24.046 24.046 0 0 0 -3.027-6.884l-4.122-6.41v-4.971a12.434 12.434 0 0 0 2.83-7.509 8.58 8.58 0 1 0 -17.16 0 12.434 12.434 0 0 0 2.83 7.509v4.971l-4.122 6.41a24.058 24.058 0 0 0 -3.029 6.884 24.073 24.073 0 0 0 -3.027-6.884l-4.122-6.41v-4.971a12.434 12.434 0 0 0 2.83-7.509 8.58 8.58 0 1 0 -17.16 0 12.434 12.434 0 0 0 2.83 7.509v4.971l-4.121 6.41a24.156 24.156 0 0 0 -3.02 19.237l.905 3.406h-6.7v-54.716zm-79.795 50.411a20.656 20.656 0 0 1 2.582-16.445l3.883-6.039h6.09l3.884 6.039a20.657 20.657 0 0 1 2.582 16.445l-1.146 4.305h-16.73zm12.7-32.127h-6.381a8.99 8.99 0 0 1 -1.889-5.1 5.08 5.08 0 1 1 10.16 0 8.99 8.99 0 0 1 -1.889 5.1zm-5.441 3.5h4.5v2.643h-4.5zm15.149 29.526.006-.025.005.025.906 3.406h-1.827zm3.394-.9a20.651 20.651 0 0 1 2.581-16.444l3.884-6.039h6.09l3.884 6.039a20.653 20.653 0 0 1 2.577 16.445l-1.145 4.305h-16.73zm12.7-32.126h-6.385a8.99 8.99 0 0 1 -1.889-5.1 5.08 5.08 0 1 1 10.16 0 8.99 8.99 0 0 1 -1.889 5.1zm-5.441 3.5h4.5v2.643h-4.5zm15.14 29.527v-.025l.006.024.906 3.406h-1.818zm16.1-33.027h-6.386a8.99 8.99 0 0 1 -1.889-5.1 5.08 5.08 0 1 1 10.16 0 8.99 8.99 0 0 1 -1.889 5.1zm-5.441 3.5h4.5v2.643h-4.5zm-43.931 65.212c0-.1 0-.2 0-.3a20.381 20.381 0 0 1 40.762 0v.3zm44.253 0c0-.1.007-.2.007-.3a23.881 23.881 0 0 0 -47.762 0c0 .1.006.2.007.3h-35.555l14.277-28.78h90.3l14.277 28.78z"/><path d="m51.75 19.065h5.25a1.75 1.75 0 0 0 0-3.5h-5.25a1.75 1.75 0 1 0 0 3.5z"/><path d="m65.5 103.241h-3a1.75 1.75 0 1 0 0 3.5h3a1.75 1.75 0 0 0 0-3.5z"/><path d="m58.872 110.949h-3a1.75 1.75 0 0 0 0 3.5h3a1.75 1.75 0 0 0 0-3.5z"/><path d="m72.128 110.949h-3a1.75 1.75 0 0 0 0 3.5h3a1.75 1.75 0 0 0 0-3.5z"/></g></g></svg>