<svg id="Capa_1" enable-background="new 0 0 512 512" height="512" viewBox="0 0 512 512" width="512" xmlns="http://www.w3.org/2000/svg"><g><path d="m504.5 340.309h-497c-4.142 0-7.5-3.357-7.5-7.5s3.358-7.5 7.5-7.5h497c4.143 0 7.5 3.357 7.5 7.5s-3.357 7.5-7.5 7.5z" fill="#ebb34c"/><path d="m420.14 451.309h-328.28c-4.142 0-7.5-3.357-7.5-7.5s3.358-7.5 7.5-7.5h328.28c4.143 0 7.5 3.357 7.5 7.5s-3.358 7.5-7.5 7.5z" fill="#ffd064"/><circle cx="351.813" cy="80.691" fill="#ffd064" r="20"/><circle cx="415.998" cy="80.691" fill="#ebb34c" r="20"/><path d="m405.734 247.615c0-21.135 12.737-27.03 12.737-27.03s15.494 31.657 22.359 40.241c1.51 1.889 5.428 5.939 10.842 11.025l14.958-19.68c-6.214-3.971-11.897-7.761-12.795-8.883-5.709-7.138-28.688-47.913-35.252-63.979l-2.237-.543s-64.878.065-64.878.065l-8.849 2.084c-6.188 1.503-11.286 5.859-13.738 11.736-5.788 13.874-16.678 39.195-22.406 47.482-1.661 2.402-4.367 5.557-7.63 8.961l12.863 16.924c5.784-4.86 10.038-8.822 11.328-10.314 15.518-17.957 26.305-35.117 26.306-35.118 0 .001 4.737 17.381 4.737 27.03 0 7.752-2.282 17.211-4.261 23.957l34.09 24.528 25.91-24.528c-.002-.001-4.084-14.928-4.084-23.958z" fill="#edf6ff"/><path d="m461.337 240.133c-5.728-8.287-16.618-33.608-22.406-47.482-2.452-5.877-7.55-10.233-13.738-11.736l-6.611-1.606c6.565 16.067 26.539 64.379 32.248 71.517 1.307 1.634 4.76 5.063 9.614 9.483l8.524-11.215c-3.264-3.404-5.97-6.559-7.631-8.961z" fill="#cde2ff"/><path d="m326.981 260.826c6.865-8.583 22.359-40.241 22.359-40.241-.956-3.508-2.398-7.617-3.698-11.083-1.085-2.892-5.1-3.08-6.435-.294-5.758 12.019-17.197 35.33-22.225 41.618-1.307 1.634-4.761 5.063-9.614 9.482l8.773 11.543c5.413-5.086 9.33-9.136 10.84-11.025z" fill="#cde2ff"/><path d="m398.734 247.615c0 12.4 4.874 26.209 4.874 26.209s-7.946 5.468-19.703 5.468c-13.111 0-27.983-5.301-34.09-7.721-1.515 5.162-2.852 8.738-2.852 8.738l36.942 25.709 36.942-25.709s-7.114-19.008-7.114-32.694c0-9.649 4.737-27.03 4.737-27.03.915-3.356 2.816-8.113 3.547-10.167.735-2.065-.803-4.227-2.995-4.227-6.601 0-13.376 6.416-15.125 12.781-2.362 8.596-5.163 20.502-5.163 28.643z" fill="#cde2ff"/><path d="m472.494 288.424-16.003-16.273c-25.125 0-70.31 21.916-99.436 37.604 8.185 6.075 16.999 10.294 26.851 10.294 47.336 0 87.554-6.946 88.588-31.625z" fill="#ffe07d"/><path d="m383.905 310.049c-9.852 0-18.773-.091-26.851-.294-16.234 8.744-27.481 15.554-27.481 15.554h108.664c26.138-5.703 39.516-16.433 39.516-31.536l-5.26-5.349c-11.393 14.048-41.251 21.625-88.588 21.625z" fill="#ffd064"/><path d="m383.905 320.049c17.885 0 25.78-10.869 25.78-10.869-11.598-6.223-25.604-13.352-39.835-19.685l-15.365 20.554s14.142 10 29.42 10z" fill="#e0aea2"/><path d="m361.907 309.862-7.421.187v18.841c8.912.762 18.708 1.159 29.42 1.159 21.871 0 40.016-1.616 54.332-4.74 0 0-11.746-7.111-28.552-16.129-7.924.573-16.51.869-25.78.869-7.92 0-15.235-.059-21.999-.187z" fill="#d79b8c"/><path d="m361.907 309.862 7.943-20.367c-21.54-9.586-43.584-17.344-58.53-17.344l-21.263 21.622c1.387 16.276 35.925 32.208 71.85 16.089z" fill="#ffe07d"/><path d="m290.057 293.773c0 19.323 21.923 31.48 64.428 35.117l7.421-19.028c-46.024-.872-66.17-4.982-71.849-16.089z" fill="#ffd064"/><path d="m351.467 178.831s9.054 22.564 32.439 22.564 32.439-22.629 32.439-22.629l-48.276-4.033z" fill="#e0aea2"/><path d="m383.822 187.123c3.279 1.33 6.692 2.17 10.083 2.17s6.804-.84 10.083-2.17c4.757-1.929 8.915-4.816 12.356-8.356l-1.268-.308-15.335-3.725s-1.075-.155-1.075-1.261 0-17.631 0-17.631h-29.523v17.631c0 1.106-1.075 1.261-1.075 1.261 3.933 5.408 9.3 9.771 15.754 12.389z" fill="#d79b8c"/><path d="m363.213 84.331c-7.545 6.061-12.379 15.359-12.379 25.79v22.351c0 15.122 8.976 28.968 22.989 34.651 3.279 1.33 6.692 2.17 10.083 2.17 16.381-3.597 28.071-21.699 28.071-36.821l5-18.351c0-.001-53.764-29.79-53.764-29.79z" fill="#e0aea2"/><path d="m401.977 132.471c0 15.122-4.059 31.138-18.071 36.821 3.391 0 6.804-.84 10.083-2.17 14.013-5.683 22.989-19.53 22.989-34.651v-18.351l-15-8.323v26.674z" fill="#d79b8c"/><path d="m409.977 110.12c0-16.8-9.329-28.836-13.199-30.473-3.957-1.674-8.307-2.599-12.873-2.599-18.265 0-33.071 14.807-33.071 33.071v4c19.631 0 33.072-10.071 33.072-10.071s6.916 5.182 18.071 8.112z" fill="#ffe07d"/><path d="m396.691 79.613c4.99 7.003 5.285 18.821 5.285 30.507v2.04c4.396 1.155 9.45 1.96 15 1.96v-4c.001-13.731-8.369-25.506-20.285-30.507z" fill="#ffd064"/><path d="m283.568 263.148s-11.589-2.523-16.589 5.501c-2.911 4.671-3.641 16.478-3.692 26.431 12.248-.876 44.08-19.36 44.08-34.771l-8.524-11.215c-4.447 4.638-9.935 9.741-15.275 14.054z" fill="#e0aea2"/><path d="m263.287 295.079c-.009 1.676.001 3.301.024 4.829.077 5.169 5.772 8.326 10.169 5.608 15.489-9.577 31.991-23.64 42.66-33.664l-8.773-11.543c-10.592 9.643-27.857 24.009-44.08 34.77z" fill="#d79b8c"/><path d="m500.832 268.648c-5-8.023-16.589-5.5-16.589-5.5s-15.469 2.485-23.799-2.839l-8.773 11.542c10.669 10.024 27.171 24.087 42.66 33.664 4.397 2.718 10.092-.439 10.169-5.608.157-10.599-.267-25.801-3.668-31.259z" fill="#e0aea2"/><path d="m484.243 263.148c-5.34-4.313-10.828-9.416-15.275-14.054l-8.524 11.215c2.448 2.229 5.251 4.71 8.316 7.34 1.125.965 2.733 1.12 4.022.389 2.641-1.498 7.327-3.929 11.461-4.89z" fill="#d79b8c"/><path d="m97.603 251.993c0 7.752-1.619 12.833-3.598 19.579l34.09 24.528 25.91-24.528s-2.419-7.834-2.419-19.579 14.074-31.408 14.074-31.408 2.104 5.329 5.057 12.205l25.763-6.181-30.71-47.301-3.703-.899-60.122-1.9-18.255 4.434c-6.115 1.485-11.153 5.788-13.576 11.596-3.075 7.372-6.761 18.027-10.402 27.635l13.14 12.616s17.673-12.197 17.676-12.205c.006.018 7.075 23.483 7.075 31.408z" fill="#ffe07d"/><path d="m143.586 251.993c0 12.4 4.211 21.832 4.211 21.832s-7.946 5.468-19.703 5.468c-13.111 0-27.983-5.301-34.09-7.721-1.515 5.162-2.852 8.738-2.852 8.738l36.942 25.709 36.942-25.709s-6.451-14.63-6.451-28.316c0-9.649 7.074-31.408 7.074-31.408.915-3.356 2.816-8.113 3.547-10.167.735-2.065-.803-4.227-2.995-4.227-6.601 0-13.376 6.416-15.125 12.781-2.362 8.595-7.5 24.879-7.5 33.02z" fill="#ffd064"/><path d="m216.682 288.424-16.003-16.273c-25.125 0-70.31 21.916-99.436 37.604 8.185 6.075 16.999 10.294 26.851 10.294 47.337 0 87.554-6.946 88.588-31.625z" fill="#9ec8fc"/><path d="m128.094 310.049c-9.852 0-18.773-.091-26.851-.294-16.234 8.744-27.481 15.554-27.481 15.554h108.664c26.138-5.703 39.516-16.433 39.516-31.536l-5.26-5.349c-11.393 14.048-41.251 21.625-88.588 21.625z" fill="#80b6fc"/><path d="m128.094 320.049c17.885 0 25.78-10.869 25.78-10.869-11.598-6.223-25.604-13.352-39.835-19.685l-15.365 20.554s14.141 10 29.42 10z" fill="#e0aea2"/><path d="m106.096 309.862-7.421.187v18.841c8.912.762 18.708 1.159 29.42 1.159 21.871 0 40.016-1.616 54.332-4.74 0 0-11.746-7.111-28.552-16.129-7.924.573-16.51.869-25.78.869-7.92 0-15.235-.059-21.999-.187z" fill="#d79b8c"/><path d="m106.096 309.862 7.943-20.367c-21.54-9.586-43.584-17.344-58.53-17.344l-21.263 21.622c1.387 16.276 35.925 32.208 71.85 16.089z" fill="#9ec8fc"/><path d="m34.246 293.773c0 19.323 21.923 31.48 64.428 35.117l7.421-19.028c-46.024-.872-66.17-4.982-71.849-16.089z" fill="#80b6fc"/><g fill="#ffd064"><path d="m154.243 176.509-4.22 9.801c3.487-1.627 6.786-3.744 9.692-5.92.826-.619 1.607-1.283 2.353-1.98z"/><path d="m90.529 220.586c-.956-3.508-2.398-7.617-3.698-11.083-1.085-2.892-5.1-3.08-6.435-.294v-.001c-2.23 4.655-4.863 11.004-7.543 17.402v6.181h12.619c2.953-6.876 5.057-12.206 5.057-12.205z"/><path d="m186.12 192.651c-2.452-5.877-7.55-10.233-13.738-11.736l-6.611-1.606c3.875 9.485 11.379 30.208 18.051 47.063l12.659.238v-6.438c-3.621-9.559-7.287-20.154-10.361-27.521z"/></g><path d="m131.465 199.791c4.745-2.4 13.393-7.309 18.558-13.481l-40.611-13.626c-2.221 1.854-5.032 3.234-7.467 3.825 0 10.581 15.718 19.713 22.781 23.283 2.121 1.073 4.619 1.071 6.739-.001z" fill="#e0aea2"/><path d="m116.473 180.39c6.1 4.569 13.919 8.903 21.621 8.903 4.033 0 8.096-1.194 11.929-2.982 2.523-3.015 4.22-6.329 4.22-9.801-4.922-1.196-11.387-5.603-11.387-10.668v-10h-29.523v10c0 2.559-1.652 4.949-3.92 6.843 1.838 2.944 4.21 5.57 7.06 7.705z" fill="#d79b8c"/><path d="m50.662 240.133c-3.923 5.676-13.646 15.537-22.905 23.015 0 0-11.589-2.523-16.589 5.501-2.911 4.671-3.641 16.478-3.692 26.431 17.404-1.244 55.394-34.339 59.747-39.376 7.46-8.632 13.128-17.074 17.008-23.52l-24.518-12.009c-3.2 8.44-6.365 16.072-9.051 19.958z" fill="#e0aea2"/><path d="m245.021 268.648c-5-8.023-16.589-5.5-16.589-5.5s-28.308-17.232-30.409-19.859c-2.099-2.625-6.13-9.805-10.712-18.625l-16.593 8.127c4.247 9.886 10.252 22.973 14.301 28.036 4.487 5.611 30.153 30.253 53.502 44.689 4.397 2.718 10.092-.439 10.169-5.608.156-10.6-.268-25.802-3.669-31.26z" fill="#e0aea2"/><path d="m61.17 250.826c-4.158 5.199-30.037 28.56-53.694 44.253-.009 1.676.001 3.301.024 4.829.077 5.169 5.772 8.326 10.169 5.608 23.348-14.436 49.014-39.079 53.501-44.689 4.049-5.062 10.055-18.149 14.301-28.036l-12.619-6.181c-4.24 10.121-8.601 20.364-11.682 24.216z" fill="#d79b8c"/><path d="m205.526 240.133c-2.686-3.886-5.848-11.519-9.046-19.961l-12.659 6.2c4.629 11.696 8.859 21.53 11.197 24.454 1.966 2.458 8.786 8.976 17.931 16.824 1.124.965 2.733 1.119 4.021.388 2.641-1.498 7.327-3.929 11.461-4.89-9.258-7.478-18.982-17.339-22.905-23.015z" fill="#d79b8c"/><path d="m107.362 84.327c-7.566 6.098-12.339 15.449-12.339 25.794v27.244c0 9.024 4.18 17.576 11.4 22.99 6.108 4.58 13.948 8.938 21.671 8.938 17.209-4.199 25.071-16.946 25.071-31.928l-7-38.056z" fill="#e0aea2"/><path d="m146.166 137.364c0 14.982-2.47 22.437-18.071 31.928 7.723 0 15.564-4.358 21.671-8.938 7.22-5.414 11.4-13.966 11.4-22.99v-22.244l-15-15.812z" fill="#d79b8c"/><path d="m107.362 84.327c0 12.536 11.881 18.997 23.705 21.235 5.741 1.086 10.822 2.422 15.099 3.747l7-13.724-7-16.15c-5.139-1.339-11.312-2.386-18.072-2.386-7.915 0-15.098 2.737-20.732 7.278z" fill="#9ec8fc"/><path d="m146.166 79.435v29.874c9.472 2.933 15 5.812 15 5.812v-24.284c0-3.639-2.191-6.926-5.565-8.289-2.471-.998-5.675-2.134-9.435-3.113z" fill="#80b6fc"/><path d="m281.91 382.572s-4.082-14.926-4.082-23.957c0-17.628 6.401-49.22 6.401-49.22h-62.795v22.19s4.737 17.381 4.737 27.03c0 7.752-2.282 17.211-4.261 23.957l34.09 24.528z" fill="#9ec8fc"/><path d="m285.829 358.615c0-9.649 4.737-27.03 4.737-27.03l.111-22.19h-6.447s-6.487 14.213-8.237 20.578c-2.363 8.596-5.164 20.501-5.164 28.643 0 12.4 4.874 26.209 4.874 26.209s-7.946 5.468-19.703 5.468c-13.111 0-27.983-5.301-34.09-7.721-1.515 5.162-2.852 8.738-2.852 8.738l36.942 25.709 36.942-25.709c0-.001-7.113-19.009-7.113-32.695z" fill="#80b6fc"/><path d="m344.588 399.424-16.003-16.273c-25.125 0-70.31 21.916-99.436 37.604 8.185 6.075 16.999 10.294 26.851 10.294 47.337 0 87.554-6.946 88.588-31.625z" fill="#edf6ff"/><path d="m256 421.049c-9.852 0-18.773-.091-26.851-.294-16.234 8.744-27.481 15.554-27.481 15.554h108.664c26.138-5.703 39.516-16.433 39.516-31.536l-5.26-5.349c-11.393 14.048-41.251 21.625-88.588 21.625z" fill="#cde2ff"/><path d="m256 431.049c17.885 0 25.78-10.869 25.78-10.869-11.598-6.223-25.604-13.352-39.835-19.685l-15.365 20.554s14.141 10 29.42 10z" fill="#e0aea2"/><path d="m234.002 420.862-7.421.187v18.841c8.912.762 18.708 1.159 29.42 1.159 21.871 0 40.016-1.616 54.332-4.74 0 0-11.746-7.111-28.552-16.129-7.924.573-16.51.869-25.78.869-7.92 0-15.235-.059-21.999-.187z" fill="#d79b8c"/><path d="m234.002 420.862 7.943-20.367c-21.54-9.586-43.584-17.344-58.53-17.344l-21.263 21.622c1.387 16.276 35.925 32.208 71.85 16.089z" fill="#edf6ff"/><path d="m162.152 404.773c0 19.323 21.923 31.48 64.428 35.117l7.421-19.028c-46.024-.872-66.17-4.982-71.849-16.089z" fill="#cde2ff"/><path d="m372.926 379.649c-5-8.024-16.589-5.501-16.589-5.501s-28.308-17.232-30.409-19.859c-5.709-7.138-28.688-47.913-35.252-63.979l-2.237-.543-48.276-4.033-5.334 3.725h-10l-10.117 2.457c-6.188 1.503-11.286 5.859-13.738 11.736-5.788 13.874-16.678 39.195-22.406 47.482-3.923 5.676-13.646 15.537-22.905 23.015 0 0-11.589-2.523-16.589 5.501-2.911 4.671-3.641 16.478-3.692 26.431 17.404-1.244 55.394-34.339 59.747-39.376 15.519-17.957 26.306-35.118 26.306-35.118l6.336-22.19h10.494c-.247 3.075 1.657 5.945 4.608 6.841 4.361 1.324 8.751 2.056 13.127 2.056 4.377 0 8.767-.732 13.128-2.056 2.952-.896 4.855-3.767 4.608-6.841h10.493l6.336 22.19s15.494 31.657 22.359 40.241c4.487 5.611 30.153 30.253 53.502 44.689 4.397 2.719 10.092-.439 10.169-5.608.157-10.601-.268-25.803-3.669-31.26z" fill="#d79b8c"/><path d="m344.876 379.038c2.641-1.498 7.327-3.929 11.461-4.89-9.258-7.478-18.982-17.339-22.905-23.015-5.728-8.287-16.618-33.608-22.406-47.482-2.452-5.877-7.55-10.233-13.738-11.736l-6.611-1.606c6.565 16.067 26.539 64.379 32.248 71.517 1.966 2.458 8.786 8.976 17.931 16.824 1.123.965 2.732 1.119 4.02.388z" fill="#c38778"/><path d="m211.301 320.208c-5.758 12.019-17.197 35.33-22.225 41.618-4.158 5.199-30.037 28.56-53.694 44.253-.009 1.676.001 3.301.024 4.829.077 5.169 5.772 8.326 10.169 5.608 23.348-14.436 49.014-39.079 53.501-44.689 6.865-8.583 22.359-40.241 22.359-40.241l6.336-22.19c-8.582-2.477-12.89 3.341-16.47 10.812z" fill="#c38778"/><path d="m255.917 298.123c3.279 1.33 6.692 2.17 10.083 2.17s6.804-.84 10.083-2.17c4.757-1.929 8.915-4.816 12.356-8.356l-1.268-.308h-10l-5.335-3.725s-1.075-.155-1.075-1.261 0-17.631 0-17.631h-29.523v17.631c0 1.106-1.075 1.261-1.075 1.261 3.932 5.408 9.299 9.771 15.754 12.389z" fill="#c38778"/><path d="m236.386 332.79-14.951-1.205 3.394-42.127 15.335-3.725z" fill="#9ec8fc"/><path d="m290.565 331.585-3.278-40.69-14.368 8.329 2.695 33.566z" fill="#80b6fc"/><path d="m287.287 290.895-.116-1.437-15.335-3.725 1.083 13.491c1.064-.312 2.121-.679 3.163-1.102 4.24-1.719 8-4.202 11.205-7.227z" fill="#688ed5"/><path d="m235.307 195.331c-7.545 6.061-12.379 15.359-12.379 25.79v22.351c0 15.122 8.976 28.968 22.989 34.651 3.279 1.33 6.692 2.17 10.083 2.17 16.381-3.597 28.071-21.699 28.071-36.821l5-18.351c0-.001-53.763-29.79-53.764-29.79z" fill="#d79b8c"/><path d="m274.071 243.471c0 15.122-4.059 31.138-18.071 36.821 3.39 0 6.804-.84 10.083-2.17 14.013-5.683 22.989-19.53 22.989-34.651v-18.351l-15-8.323v26.674z" fill="#c38778"/><path d="m284.071 221.12c0-11.686-5.012-23.697-15.285-30.507-3.934-1.651-8.253-2.565-12.786-2.565-7.834 0-15.026 2.729-20.693 7.282 0 0 12.321 21.631 38.766 28.016 3.133.757 9.998-2.226 9.998-2.226z" fill="#edf6ff"/><path d="m268.786 190.613c4.99 7.003 5.285 18.821 5.285 30.507v2.233c4.577 1.106 9.566 1.767 15 1.767v-4c0-13.731-8.37-25.506-20.285-30.507z" fill="#cde2ff"/></g></svg>