<svg id="Capa_1" enable-background="new 0 0 512 512" height="512" viewBox="0 0 512 512" width="512" xmlns="http://www.w3.org/2000/svg"><g><path d="m501.698 96.78h-437.178v382.96h437.178c5.69 0 10.302-4.612 10.302-10.302v-362.356c0-5.689-4.612-10.302-10.302-10.302z" fill="#bc95e2"/><path d="m488.065 96.78v348.618c0 5.747-4.659 10.407-10.406 10.407h-284.035c-22.088 0-39.716-18.06-39.609-40.147.001-.146.001-.292.001-.438v-318.44h-89.496v382.96h437.178c5.69 0 10.302-4.612 10.302-10.302v-362.356c0-5.69-4.612-10.302-10.302-10.302z" fill="#ac80dd"/><path d="m0 96.78c0-35.634 28.887-64.52 64.52-64.52s64.52 28.887 64.52 64.52v318.44h-129.04z" fill="#9d66d5"/><path d="m110.309 51.332v363.888h18.732v-318.44c0-17.73-7.156-33.786-18.732-45.448z" fill="#8659b9"/><circle cx="64.52" cy="415.22" fill="#734a9b" r="64.52"/><path d="m64.52 376.274c-30.656 0-55.596 24.94-55.596 55.596 0 7.455 1.347 14.811 3.771 21.781 9.201 12.388 22.738 21.356 38.365 24.673-16.413-9.768-26.683-29.469-26.683-46.454 0-22.135 18.008-40.143 40.143-40.143 22.136 0 40.144 18.008 40.144 40.143 0 12.954-10.539 23.493-23.493 23.493s-23.493-10.539-23.493-23.493c0-4.921 4.003-8.924 8.924-8.924s8.925 4.004 8.925 8.924c0 4.267 3.459 7.726 7.726 7.726 4.268 0 7.726-3.459 7.726-7.726 0-13.442-10.936-24.377-24.377-24.377s-24.376 10.935-24.376 24.377c0 21.475 17.471 38.946 38.946 38.946s38.946-17.471 38.946-38.946c-.001-30.656-24.942-55.596-55.598-55.596z" fill="#5e3881"/></g></svg>